<svg xmlns="http://www.w3.org/2000/svg" xmlns:xlink="http://www.w3.org/1999/xlink" version="1.1" width="1000" height="1000" viewBox="0 0 1000 1000" xml:space="preserve">
<desc>Created with Fabric.js 3.5.0</desc>
<defs>
</defs>
<rect x="0" y="0" width="100%" height="100%" fill="#ffffff"/>
<g transform="matrix(0.9779 0 0 0.9779 500.0215 500.019)" id="247142">
<g style="" vector-effect="non-scaling-stroke">
		<g transform="matrix(1 0 0 1 288.78 344.98)" id="1084">
<ellipse style="stroke: none; stroke-width: 1; stroke-dasharray: none; stroke-linecap: butt; stroke-dashoffset: 0; stroke-linejoin: miter; stroke-miterlimit: 4; is-custom-font: none; font-file-url: none; fill: rgb(223,181,181); fill-rule: nonzero; opacity: 0.1;" cx="0" cy="0" rx="118.88" ry="20.45"/>
</g>
		<g transform="matrix(1 0 0 1 -71.16 324.98)" id="1084">
<ellipse style="stroke: none; stroke-width: 1; stroke-dasharray: none; stroke-linecap: butt; stroke-dashoffset: 0; stroke-linejoin: miter; stroke-miterlimit: 4; is-custom-font: none; font-file-url: none; fill: rgb(223,181,181); fill-rule: nonzero; opacity: 0.1;" cx="0" cy="0" rx="176" ry="12.45"/>
</g>
		<g transform="matrix(1 0 0 1 0.4192 -103.993)" id="1084">
<path style="stroke: none; stroke-width: 1; stroke-dasharray: none; stroke-linecap: butt; stroke-dashoffset: 0; stroke-linejoin: miter; stroke-miterlimit: 4; is-custom-font: none; font-file-url: none; fill: rgb(223,181,181); fill-rule: nonzero; opacity: 0.1;" transform=" translate(-600.4191, -346.0071)" d="M 422.79 72.67 c 31.52 -28.09 81 -33.81 126 -31.57 c 141.44 7 269.11 75.31 379.55 152.54 c 40 28 79.34 58.09 105.29 96.6 c 52.83 78.38 37.16 187 -36.3 251.53 c -25 22 -55.29 38.81 -86.4 53.74 c -55.3 26.55 -115 47.86 -177.74 53.92 c -44.76 4.33 -90.08 0.81 -134.58 -5.22 C 474.29 627.35 352.26 590.06 250 526.27 c -44.86 -28 -87.15 -62.76 -105.64 -108 s -6.65 -102.62 39.15 -129.41 c 19 -11.08 41.6 -16.08 63.78 -20.78 c 32.64 -6.92 65.81 -13.74 95.27 -27.8 C 373 225.74 409 197.65 403 165.51 C 396.5 131 391.31 100.72 422.79 72.67 Z" stroke-linecap="round"/>
</g>
		<g transform="matrix(1 0 0 1 -304.605 -232.43)" id="1084">
<line style="stroke: none; stroke-width: 1; stroke-dasharray: none; stroke-linecap: butt; stroke-dashoffset: 0; stroke-linejoin: miter; stroke-miterlimit: 4; is-custom-font: none; font-file-url: none; fill: rgb(223,181,181); fill-rule: nonzero; opacity: 1;" x1="3.7650000000000006" y1="0" x2="-3.7650000000000006" y2="0"/>
</g>
		<g transform="matrix(1 0 0 1 -121.535 195.71)" id="1084">
<path style="stroke: none; stroke-width: 1; stroke-dasharray: none; stroke-linecap: butt; stroke-dashoffset: 0; stroke-linejoin: miter; stroke-miterlimit: 4; is-custom-font: none; font-file-url: none; fill: rgb(0,0,0); fill-rule: nonzero; opacity: 0.1;" transform=" translate(-478.465, -645.71)" d="M 541.81 687 c 3.84 6.53 9.86 10.74 16.64 10.74 c 11.58 0 21 -12.27 21 -27.42 S 570 643 558.45 643 c -5.45 0 -10.42 2.72 -14.15 7.19 a 27.09 27.09 0 0 0 -3.57 5.59 l -0.2 1.19 s -4.47 3.82 -10.56 0.31 V 568.46 H 443.25 a 7 7 0 0 1 -1.05 -6.54 a 8.36 8.36 0 0 1 3.91 -4.77 c 6.53 -3.84 10.75 -9.86 10.75 -16.64 c 0 -11.58 -12.28 -21 -27.42 -21 s -27.42 9.39 -27.42 21 c 0 5.45 2.73 10.43 7.2 14.16 a 27.25 27.25 0 0 0 5.58 3.56 l 0.12 0.2 a 8.53 8.53 0 0 1 1.67 10 H 377.48 V 732.91 a 39 39 0 0 0 39 39 H 530 V 684.63 a 6.91 6.91 0 0 1 7.07 -1.5 A 8.28 8.28 0 0 1 541.81 687 Z" stroke-linecap="round"/>
</g>
		<g transform="matrix(1 0 0 1 -123.065 -88.565)" id="1084">
<path style="stroke: none; stroke-width: 1; stroke-dasharray: none; stroke-linecap: butt; stroke-dashoffset: 0; stroke-linejoin: miter; stroke-miterlimit: 4; is-custom-font: none; font-file-url: none; fill: rgb(0,0,0); fill-rule: nonzero; opacity: 0.1;" transform=" translate(-476.935, -361.435)" d="M 395.86 565 h 13.58 a 27.41 27.41 0 0 1 -10.71 -21.51 c 0 -15.59 13.6 -28.22 30.37 -28.22 s 30.38 12.63 30.38 28.22 A 27.41 27.41 0 0 1 448.77 565 h 81.4 V 477.37 a 7 7 0 0 1 7.07 -1.5 a 8.33 8.33 0 0 1 4.78 3.91 c 3.83 6.53 9.85 10.74 16.64 10.74 c 11.58 0 21 -12.27 21 -27.41 s -9.38 -27.42 -21 -27.42 c -5.46 0 -10.43 2.73 -14.16 7.19 a 27.63 27.63 0 0 0 -3.57 5.59 l -0.19 0.12 A 8.54 8.54 0 0 1 530.17 450 V 361.2 H 446.68 a 7 7 0 0 1 -1.05 -6.54 a 8.31 8.31 0 0 1 3.91 -4.77 c 6.53 -3.83 10.74 -9.86 10.74 -16.64 c 0 -11.58 -12.27 -21 -27.41 -21 s -27.42 9.39 -27.42 21 c 0 5.46 2.73 10.43 7.19 14.16 a 27.63 27.63 0 0 0 5.59 3.57 l 0.12 0.19 a 8.53 8.53 0 0 1 1.67 10 H 395.86 v -4.5 H 413.7 A 27.4 27.4 0 0 1 403 335.2 c 0 -15.59 13.6 -28.23 30.38 -28.23 s 30.37 12.64 30.37 28.23 A 27.4 27.4 0 0 1 453 356.7 h 77.1 V 268 a 6.94 6.94 0 0 1 7.08 -1.5 a 8.34 8.34 0 0 1 4.77 3.91 c 3.83 6.53 9.86 10.74 16.64 10.74 c 11.58 0 21 -12.27 21 -27.42 s -9.38 -27.41 -21 -27.41 c -5.46 0 -10.43 2.72 -14.16 7.19 a 27.09 27.09 0 0 0 -3.57 5.59 l -0.19 1.19 s -4.47 3.82 -10.57 0.31 V 157.87 H 416.63 a 39 39 0 0 0 -39 39 v 42.22 h -0.59 a 2.29 2.29 0 0 0 -2.29 2.29 v 20 a 2.3 2.3 0 0 0 2.29 2.29 h 0.59 v 20.42 h -0.77 a 2.3 2.3 0 0 0 -2.3 2.29 v 38.19 a 2.3 2.3 0 0 0 2.3 2.29 h 0.77 v 15 H 377 a 2.29 2.29 0 0 0 -2.29 2.29 v 12.3 h -0.5 v 25.92 a 2.28 2.28 0 0 0 2.29 2.29 h 0.68 V 565 Z" stroke-linecap="round"/>
</g>
		<g transform="matrix(1 0 0 1 15.38 -193.055)" id="1084">
<path style="stroke: none; stroke-width: 1; stroke-dasharray: none; stroke-linecap: butt; stroke-dashoffset: 0; stroke-linejoin: miter; stroke-miterlimit: 4; is-custom-font: none; font-file-url: none; fill: rgb(0,0,0); fill-rule: nonzero; opacity: 0.1;" transform=" translate(-615.38, -256.945)" d="M 692.59 299.5 a 2.3 2.3 0 0 0 -2.29 -2.3 h -1.38 v -2.51 h -0.75 V 194.94 a 37.49 37.49 0 0 0 -37.5 -37.5 H 538.17 v 76 a 27.75 27.75 0 0 1 22 -11.05 c 15.71 0 28.45 13.61 28.45 30.39 s -12.74 30.39 -28.45 30.39 a 27.73 27.73 0 0 1 -22 -11.05 v 84.33 h 91 a 27.47 27.47 0 0 1 -10.69 -21.53 c 0 -15.61 13.57 -28.26 30.32 -28.26 A 31.45 31.45 0 0 1 669.17 314 a 26.72 26.72 0 0 1 0 41.75 v 0.67 h 19.75 v -0.07 h 3.67 Z" stroke-linecap="round"/>
</g>
		<g transform="matrix(1 0 0 1 9.09 195.625)" id="1084">
<path style="stroke: none; stroke-width: 1; stroke-dasharray: none; stroke-linecap: butt; stroke-dashoffset: 0; stroke-linejoin: miter; stroke-miterlimit: 4; is-custom-font: none; font-file-url: none; fill: rgb(0,0,0); fill-rule: nonzero; opacity: 0.1;" transform=" translate(-609.09, -645.625)" d="M 662.38 560.51 v -10 h 0 a 19 19 0 0 0 1.13 -1.87 a 16.66 16.66 0 0 0 2.06 -7.95 a 16.37 16.37 0 0 0 -0.94 -5.44 a 18 18 0 0 0 -2.25 -4.38 h 0 c -4.61 -6.63 -13.72 -11.15 -24.22 -11.15 c -15.15 0 -27.42 9.39 -27.42 21 c 0 5.46 2.73 10.43 7.19 14.16 a 27.63 27.63 0 0 0 5.59 3.57 l 0.12 0.19 a 8.54 8.54 0 0 1 1.67 10 H 537.09 v 82 a 27.41 27.41 0 0 1 21.77 -11 c 15.59 0 28.22 13.6 28.22 30.37 s -12.63 30.38 -28.22 30.38 a 27.41 27.41 0 0 1 -21.77 -11 v 66.19 H 638.32 a 24.06 24.06 0 0 0 24.06 -24 V 568.67 h 0 v 162.8 a 24.06 24.06 0 0 1 -24.06 24.06 H 537.09 v 16 h 105 a 39 39 0 0 0 39 -39 V 568.67 h 0 v -4.3 H 662.38 Z" stroke-linecap="round"/>
</g>
		<g transform="matrix(1 0 0 1 -145.26 216.185)" id="1084">
<path style="stroke: none; stroke-width: 1; stroke-dasharray: none; stroke-linecap: butt; stroke-dashoffset: 0; stroke-linejoin: miter; stroke-miterlimit: 4; is-custom-font: none; font-file-url: none; fill: rgb(58,55,104); fill-rule: nonzero; opacity: 1;" transform=" translate(-454.74, -666.185)" d="M 421.25 751.86 a 24.06 24.06 0 0 1 -24.06 -24.06 V 564.46 H 378.48 V 728.91 a 39 39 0 0 0 39 39 H 531 v -16 Z" stroke-linecap="round"/>
</g>
		<g transform="matrix(1 0 0 1 -111.2 183.685)" id="1084">
<path style="stroke: none; stroke-width: 1; stroke-dasharray: none; stroke-linecap: butt; stroke-dashoffset: 0; stroke-linejoin: miter; stroke-miterlimit: 4; is-custom-font: none; font-file-url: none; fill: rgb(223,181,181); fill-rule: nonzero; opacity: 1;" transform=" translate(-488.8, -633.685)" d="M 538 679.13 a 8.28 8.28 0 0 1 4.77 3.91 c 3.84 6.53 9.86 10.74 16.64 10.74 c 11.58 0 21 -12.27 21 -27.42 S 571 639 559.45 639 c -5.45 0 -10.42 2.72 -14.15 7.19 a 27.09 27.09 0 0 0 -3.57 5.59 l -0.2 1.19 s -4.47 3.82 -10.56 0.31 V 564.46 H 444.25 a 7 7 0 0 1 -1.05 -6.54 a 8.36 8.36 0 0 1 3.91 -4.77 c 6.53 -3.84 10.75 -9.86 10.75 -16.64 c 0 -11.58 -12.28 -21 -27.42 -21 s -27.42 9.39 -27.42 21 c 0 5.45 2.73 10.43 7.2 14.16 a 27.25 27.25 0 0 0 5.58 3.56 l 0.12 0.2 a 8.53 8.53 0 0 1 1.67 10 h -20.4 V 727.8 a 24.06 24.06 0 0 0 24.06 24.06 H 531 V 680.63 A 6.91 6.91 0 0 1 538 679.13 Z" stroke-linecap="round"/>
</g>
		<g transform="matrix(1 0 0 1 -223.335 -95.21)" id="1084">
<rect style="stroke: none; stroke-width: 1; stroke-dasharray: none; stroke-linecap: butt; stroke-dashoffset: 0; stroke-linejoin: miter; stroke-miterlimit: 4; is-custom-font: none; font-file-url: none; fill: rgb(58,55,104); fill-rule: nonzero; opacity: 1;" x="-1.485" y="-2.42" rx="0" ry="0" width="2.97" height="4.84"/>
</g>
		<g transform="matrix(1 0 0 1 -211.255 -95.21)" id="1084">
<rect style="stroke: none; stroke-width: 1; stroke-dasharray: none; stroke-linecap: butt; stroke-dashoffset: 0; stroke-linejoin: miter; stroke-miterlimit: 4; is-custom-font: none; font-file-url: none; fill: rgb(58,55,104); fill-rule: nonzero; opacity: 1;" x="-8.115" y="-2.42" rx="0" ry="0" width="16.23" height="4.84"/>
</g>
		<g transform="matrix(1 0 0 1 -220.61 -95.21)" id="1084">
<rect style="stroke: none; stroke-width: 1; stroke-dasharray: none; stroke-linecap: butt; stroke-dashoffset: 0; stroke-linejoin: miter; stroke-miterlimit: 4; is-custom-font: none; font-file-url: none; fill: rgb(58,55,104); fill-rule: nonzero; opacity: 1;" x="-1.24" y="-2.42" rx="0" ry="0" width="2.48" height="4.84"/>
</g>
		<g transform="matrix(1 0 0 1 -62.91 116.33)" id="1084">
<path style="stroke: none; stroke-width: 1; stroke-dasharray: none; stroke-linecap: butt; stroke-dashoffset: 0; stroke-linejoin: miter; stroke-miterlimit: 4; is-custom-font: none; font-file-url: none; fill: rgb(223,181,181); fill-rule: nonzero; opacity: 1;" transform=" translate(-537.09, -566.33)" d="M 537.09 566.33" stroke-linecap="round"/>
</g>
		<g transform="matrix(1 0 0 1 -223.35 -81.1098)" id="1084">
<path style="stroke: none; stroke-width: 1; stroke-dasharray: none; stroke-linecap: butt; stroke-dashoffset: 0; stroke-linejoin: miter; stroke-miterlimit: 4; is-custom-font: none; font-file-url: none; fill: rgb(58,55,104); fill-rule: nonzero; opacity: 1;" transform=" translate(-376.65, -368.8902)" d="M 377.47 380.58 h 0.68 V 357.2 h -3 v 21.09 A 2.28 2.28 0 0 0 377.47 380.58 Z" stroke-linecap="round"/>
</g>
		<g transform="matrix(1 0 0 1 -212.495 9.1)" id="1084">
<path style="stroke: none; stroke-width: 1; stroke-dasharray: none; stroke-linecap: butt; stroke-dashoffset: 0; stroke-linejoin: miter; stroke-miterlimit: 4; is-custom-font: none; font-file-url: none; fill: rgb(58,55,104); fill-rule: nonzero; opacity: 1;" transform=" translate(-387.505, -459.1)" d="M 396.86 357.2 H 380.63 v 21.09 a 2.29 2.29 0 0 1 -2.3 2.29 h -0.18 V 561 h 18.71 Z" stroke-linecap="round"/>
</g>
		<g transform="matrix(1 0 0 1 -220.61 -81.11)" id="1084">
<path style="stroke: none; stroke-width: 1; stroke-dasharray: none; stroke-linecap: butt; stroke-dashoffset: 0; stroke-linejoin: miter; stroke-miterlimit: 4; is-custom-font: none; font-file-url: none; fill: rgb(58,55,104); fill-rule: nonzero; opacity: 1;" transform=" translate(-379.39, -368.89)" d="M 378.15 380.58 h 0.18 a 2.29 2.29 0 0 0 2.3 -2.29 V 357.2 h -2.48 Z" stroke-linecap="round"/>
</g>
		<g transform="matrix(1 0 0 1 -111.24 -15.375)" id="1084">
<path style="stroke: none; stroke-width: 1; stroke-dasharray: none; stroke-linecap: butt; stroke-dashoffset: 0; stroke-linejoin: miter; stroke-miterlimit: 4; is-custom-font: none; font-file-url: none; fill: rgb(223,181,181); fill-rule: nonzero; opacity: 1;" transform=" translate(-488.76, -434.625)" d="M 399.73 539.45 c 0 -15.59 13.6 -28.22 30.37 -28.22 s 30.38 12.63 30.38 28.22 A 27.41 27.41 0 0 1 449.77 561 h 81.4 V 473.37 a 7 7 0 0 1 7.07 -1.5 a 8.33 8.33 0 0 1 4.78 3.91 c 3.83 6.53 9.85 10.74 16.64 10.74 c 11.58 0 21 -12.27 21 -27.41 s -9.38 -27.42 -21 -27.42 c -5.46 0 -10.43 2.73 -14.16 7.19 a 27.63 27.63 0 0 0 -3.57 5.59 l -0.19 0.12 A 8.54 8.54 0 0 1 531.17 446 V 357.2 H 447.68 a 7 7 0 0 1 -1.05 -6.54 a 8.31 8.31 0 0 1 3.91 -4.77 c 6.53 -3.83 10.74 -9.86 10.74 -16.64 c 0 -11.58 -12.27 -21 -27.41 -21 s -27.42 9.39 -27.42 21 c 0 5.46 2.73 10.43 7.19 14.16 a 27.63 27.63 0 0 0 5.59 3.57 l 0.12 0.19 a 8.53 8.53 0 0 1 1.67 10 H 396.86 V 561 h 13.58 A 27.41 27.41 0 0 1 399.73 539.45 Z" stroke-linecap="round"/>
</g>
		<g transform="matrix(1 0 0 1 -220.11 -105.09)" id="1084">
<path style="stroke: none; stroke-width: 1; stroke-dasharray: none; stroke-linecap: butt; stroke-dashoffset: 0; stroke-linejoin: miter; stroke-miterlimit: 4; is-custom-font: none; font-file-url: none; fill: rgb(58,55,104); fill-rule: nonzero; opacity: 1;" transform=" translate(-379.89, -344.91)" d="M 381.13 339.74 a 2.29 2.29 0 0 0 -2.3 -2.29 h -0.18 v 14.92 h 2.48 Z" stroke-linecap="round"/>
</g>
		<g transform="matrix(1 0 0 1 -222.79 -202.64)" id="1084">
<path style="stroke: none; stroke-width: 1; stroke-dasharray: none; stroke-linecap: butt; stroke-dashoffset: 0; stroke-linejoin: miter; stroke-miterlimit: 4; is-custom-font: none; font-file-url: none; fill: rgb(58,55,104); fill-rule: nonzero; opacity: 1;" transform=" translate(-377.21, -247.36)" d="M 378.56 235.07 h -0.5 a 2.29 2.29 0 0 0 -2.29 2.29 v 20 a 2.3 2.3 0 0 0 2.29 2.29 h 0.59 V 235.08 Z" stroke-linecap="round"/>
</g>
		<g transform="matrix(1 0 0 1 -222.885 -148.565)" id="1084">
<path style="stroke: none; stroke-width: 1; stroke-dasharray: none; stroke-linecap: butt; stroke-dashoffset: 0; stroke-linejoin: miter; stroke-miterlimit: 4; is-custom-font: none; font-file-url: none; fill: rgb(58,55,104); fill-rule: nonzero; opacity: 1;" transform=" translate(-377.115, -301.435)" d="M 377.88 280.05 a 2.3 2.3 0 0 0 -2.3 2.29 v 38.19 a 2.3 2.3 0 0 0 2.3 2.29 h 0.77 V 280.05 Z" stroke-linecap="round"/>
</g>
		<g transform="matrix(1 0 0 1 -222.79 -104.76)" id="1084">
<path style="stroke: none; stroke-width: 1; stroke-dasharray: none; stroke-linecap: butt; stroke-dashoffset: 0; stroke-linejoin: miter; stroke-miterlimit: 4; is-custom-font: none; font-file-url: none; fill: rgb(58,55,104); fill-rule: nonzero; opacity: 1;" transform=" translate(-377.21, -345.24)" d="M 378.65 337.78 H 378 a 2.29 2.29 0 0 0 -2.29 2.29 V 352.7 h 3 Z" stroke-linecap="round"/>
</g>
		<g transform="matrix(1 0 0 1 -145.095 -196.715)" id="1084">
<path style="stroke: none; stroke-width: 1; stroke-dasharray: none; stroke-linecap: butt; stroke-dashoffset: 0; stroke-linejoin: miter; stroke-miterlimit: 4; is-custom-font: none; font-file-url: none; fill: rgb(58,55,104); fill-rule: nonzero; opacity: 1;" transform=" translate(-454.905, -253.285)" d="M 378.65 192.86 v 42.22 a 2.28 2.28 0 0 1 2.2 2.28 v 20 a 2.29 2.29 0 0 1 -2.2 2.28 v 20.42 H 379 a 2.29 2.29 0 0 1 2.29 2.29 v 38.19 a 2.29 2.29 0 0 1 -2.29 2.29 h -0.37 v 15 h 0.18 a 2.3 2.3 0 0 1 2.3 2.29 V 352.7 h 16.23 V 194 a 24.06 24.06 0 0 1 24.05 -24.06 H 454 v 4.18 a 19.81 19.81 0 0 0 19.81 19.81 h 57.37 V 180.85 H 504.77 A 3.89 3.89 0 0 1 500.9 177 v -0.84 a 3.88 3.88 0 0 1 3.87 -3.87 h 26.36 V 153.87 H 417.63 A 39 39 0 0 0 378.65 192.86 Z" stroke-linecap="round"/>
</g>
		<g transform="matrix(1 0 0 1 -220.25 -202.655)" id="1084">
<path style="stroke: none; stroke-width: 1; stroke-dasharray: none; stroke-linecap: butt; stroke-dashoffset: 0; stroke-linejoin: miter; stroke-miterlimit: 4; is-custom-font: none; font-file-url: none; fill: rgb(58,55,104); fill-rule: nonzero; opacity: 1;" transform=" translate(-379.75, -247.345)" d="M 380.85 257.35 v -20 a 2.28 2.28 0 0 0 -2.2 -2.28 v 24.55 A 2.29 2.29 0 0 0 380.85 257.35 Z" stroke-linecap="round"/>
</g>
		<g transform="matrix(1 0 0 1 -220.02 -148.565)" id="1084">
<path style="stroke: none; stroke-width: 1; stroke-dasharray: none; stroke-linecap: butt; stroke-dashoffset: 0; stroke-linejoin: miter; stroke-miterlimit: 4; is-custom-font: none; font-file-url: none; fill: rgb(58,55,104); fill-rule: nonzero; opacity: 1;" transform=" translate(-379.98, -301.435)" d="M 381.31 320.53 V 282.34 a 2.29 2.29 0 0 0 -2.29 -2.29 h -0.37 v 42.77 H 379 A 2.29 2.29 0 0 0 381.31 320.53 Z" stroke-linecap="round"/>
</g>
		<g transform="matrix(1 0 0 1 -111.025 -188.695)" id="1084">
<path style="stroke: none; stroke-width: 1; stroke-dasharray: none; stroke-linecap: butt; stroke-dashoffset: 0; stroke-linejoin: miter; stroke-miterlimit: 4; is-custom-font: none; font-file-url: none; fill: rgb(223,181,181); fill-rule: nonzero; opacity: 1;" transform=" translate(-488.975, -261.305)" d="M 404 331.2 c 0 -15.59 13.6 -28.23 30.38 -28.23 s 30.37 12.64 30.37 28.23 A 27.4 27.4 0 0 1 454 352.7 h 77.1 V 264 a 6.94 6.94 0 0 1 7.08 -1.5 a 8.34 8.34 0 0 1 4.77 3.91 c 3.83 6.53 9.86 10.74 16.64 10.74 c 11.58 0 21 -12.27 21 -27.42 s -9.38 -27.41 -21 -27.41 c -5.46 0 -10.43 2.72 -14.16 7.19 a 27.09 27.09 0 0 0 -3.57 5.59 l -0.19 1.19 s -4.47 3.82 -10.57 0.31 V 193.9 H 473.76 A 19.81 19.81 0 0 1 454 174.09 v -4.18 H 421.41 A 24.06 24.06 0 0 0 397.36 194 V 352.7 H 414.7 A 27.4 27.4 0 0 1 404 331.2 Z" stroke-linecap="round"/>
</g>
		<g transform="matrix(1 0 0 1 -83.985 -273.43)" id="1084">
<path style="stroke: none; stroke-width: 1; stroke-dasharray: none; stroke-linecap: butt; stroke-dashoffset: 0; stroke-linejoin: miter; stroke-miterlimit: 4; is-custom-font: none; font-file-url: none; fill: rgb(230,232,236); fill-rule: nonzero; opacity: 1;" transform=" translate(-516.015, -176.57)" d="M 504.77 172.26 a 3.88 3.88 0 0 0 -3.87 3.87 V 177 a 3.89 3.89 0 0 0 3.87 3.88 h 26.36 v -8.59 Z" stroke-linecap="round"/>
</g>
		<g transform="matrix(1 0 0 1 86.545 -128.435)" id="1084">
<path style="stroke: none; stroke-width: 1; stroke-dasharray: none; stroke-linecap: butt; stroke-dashoffset: 0; stroke-linejoin: miter; stroke-miterlimit: 4; is-custom-font: none; font-file-url: none; fill: rgb(58,55,104); fill-rule: nonzero; opacity: 1;" transform=" translate(-686.545, -321.565)" d="M 683.17 293.08 v 59.36 h 6.75 V 290.69 h -3.65 C 684.56 290.69 683.17 291.76 683.17 293.08 Z" stroke-linecap="round"/>
</g>
		<g transform="matrix(1 0 0 1 -56.83 -287.56)" id="1084">
<rect style="stroke: none; stroke-width: 1; stroke-dasharray: none; stroke-linecap: butt; stroke-dashoffset: 0; stroke-linejoin: miter; stroke-miterlimit: 4; is-custom-font: none; font-file-url: none; fill: rgb(58,55,104); fill-rule: nonzero; opacity: 1;" x="-4" y="-9" rx="0" ry="0" width="8" height="18"/>
</g>
		<g transform="matrix(1 0 0 1 -56.83 -263.06)" id="1084">
<rect style="stroke: none; stroke-width: 1; stroke-dasharray: none; stroke-linecap: butt; stroke-dashoffset: 0; stroke-linejoin: miter; stroke-miterlimit: 4; is-custom-font: none; font-file-url: none; fill: rgb(58,55,104); fill-rule: nonzero; opacity: 1;" x="-4" y="-6.5" rx="0" ry="0" width="8" height="13"/>
</g>
		<g transform="matrix(1 0 0 1 -56.83 -274.06)" id="1084">
<rect style="stroke: none; stroke-width: 1; stroke-dasharray: none; stroke-linecap: butt; stroke-dashoffset: 0; stroke-linejoin: miter; stroke-miterlimit: 4; is-custom-font: none; font-file-url: none; fill: rgb(230,232,236); fill-rule: nonzero; opacity: 1;" x="-4" y="-4.5" rx="0" ry="0" width="8" height="9"/>
</g>
		<g transform="matrix(1 0 0 1 91.505 -127.215)" id="1084">
<path style="stroke: none; stroke-width: 1; stroke-dasharray: none; stroke-linecap: butt; stroke-dashoffset: 0; stroke-linejoin: miter; stroke-miterlimit: 4; is-custom-font: none; font-file-url: none; fill: rgb(58,55,104); fill-rule: nonzero; opacity: 1;" transform=" translate(-691.505, -322.785)" d="M 691.3 293.2 h -1.88 v 59.17 h 4.17 V 295.5 A 2.3 2.3 0 0 0 691.3 293.2 Z" stroke-linecap="round"/>
</g>
		<g transform="matrix(1 0 0 1 17.665 -197.07)" id="1084">
<path style="stroke: none; stroke-width: 1; stroke-dasharray: none; stroke-linecap: butt; stroke-dashoffset: 0; stroke-linejoin: miter; stroke-miterlimit: 4; is-custom-font: none; font-file-url: none; fill: rgb(58,55,104); fill-rule: nonzero; opacity: 1;" transform=" translate(-617.665, -252.93)" d="M 547.16 171.44 c 2.13 0.48 4 4.36 4 4.36 v 0.84 s -1.88 3.87 -4 3.8 h 0 v 13 h 45.19 a 19.82 19.82 0 0 0 19.81 -19.82 v -4.18 h 34 a 24.05 24.05 0 0 1 24 24.05 V 310 a 26.72 26.72 0 0 1 0 41.75 v 0.67 h 14 V 293.73 a 0.29 0.29 0 0 1 0.3 -0.29 h 4.7 V 190.94 a 37.49 37.49 0 0 0 -37.5 -37.5 H 546.17 v 18 Z m 15.14 -0.09 a 4.87 4.87 0 1 1 -4.87 4.87 A 4.87 4.87 0 0 1 562.3 171.35 Z" stroke-linecap="round"/>
</g>
		<g transform="matrix(1 0 0 1 4.645 -189.06)" id="1084">
<path style="stroke: none; stroke-width: 1; stroke-dasharray: none; stroke-linecap: butt; stroke-dashoffset: 0; stroke-linejoin: miter; stroke-miterlimit: 4; is-custom-font: none; font-file-url: none; fill: rgb(223,181,181); fill-rule: nonzero; opacity: 1;" transform=" translate(-604.645, -260.94)" d="M 561.12 218.38 c 15.71 0 28.45 13.61 28.45 30.39 s -12.74 30.39 -28.45 30.39 a 27.73 27.73 0 0 1 -22 -11.05 v 84.33 h 91 a 27.47 27.47 0 0 1 -10.69 -21.53 c 0 -15.61 13.57 -28.26 30.32 -28.26 A 31.45 31.45 0 0 1 670.17 310 V 193.49 a 24.05 24.05 0 0 0 -24 -24.05 h -34 v 4.18 a 19.82 19.82 0 0 1 -19.81 19.82 H 539.17 v 36 A 27.75 27.75 0 0 1 561.12 218.38 Z" stroke-linecap="round"/>
</g>
		<g transform="matrix(1 0 0 1 -51.34 -274.06)" id="1084">
<path style="stroke: none; stroke-width: 1; stroke-dasharray: none; stroke-linecap: butt; stroke-dashoffset: 0; stroke-linejoin: miter; stroke-miterlimit: 4; is-custom-font: none; font-file-url: none; fill: rgb(230,232,236); fill-rule: nonzero; opacity: 1;" transform=" translate(-548.66, -175.94)" d="M 547.16 180.44 a 4 4 0 0 0 4 -3.8 v -0.84 a 5 5 0 0 0 -4 -4.36 h -1 v 9 Z" stroke-linecap="round"/>
</g>
		<g transform="matrix(0.9871 -0.1602 0.1602 0.9871 -37.6997 -273.8016)" id="1084">
<circle style="stroke: none; stroke-width: 1; stroke-dasharray: none; stroke-linecap: butt; stroke-dashoffset: 0; stroke-linejoin: miter; stroke-miterlimit: 4; is-custom-font: none; font-file-url: none; fill: rgb(230,232,236); fill-rule: nonzero; opacity: 1;" cx="0" cy="0" r="4.87"/>
</g>
		<g transform="matrix(1 0 0 1 64.975 91.69)" id="1084">
<path style="stroke: none; stroke-width: 1; stroke-dasharray: none; stroke-linecap: butt; stroke-dashoffset: 0; stroke-linejoin: miter; stroke-miterlimit: 4; is-custom-font: none; font-file-url: none; fill: rgb(58,55,104); fill-rule: nonzero; opacity: 1;" transform=" translate(-664.975, -541.69)" d="M 663.38 556.51 v -10 a 16.71 16.71 0 0 0 0 -19.64 Z" stroke-linecap="round"/>
</g>
		<g transform="matrix(1 0 0 1 72.735 112.52)" id="1084">
<rect style="stroke: none; stroke-width: 1; stroke-dasharray: none; stroke-linecap: butt; stroke-dashoffset: 0; stroke-linejoin: miter; stroke-miterlimit: 4; is-custom-font: none; font-file-url: none; fill: rgb(58,55,104); fill-rule: nonzero; opacity: 1;" x="-9.355" y="-2.15" rx="0" ry="0" width="18.71" height="4.3"/>
</g>
		<g transform="matrix(1 0 0 1 57.4557 105.59)" id="1084">
<path style="stroke: none; stroke-width: 1; stroke-dasharray: none; stroke-linecap: butt; stroke-dashoffset: 0; stroke-linejoin: miter; stroke-miterlimit: 4; is-custom-font: none; font-file-url: none; fill: rgb(223,181,181); fill-rule: nonzero; opacity: 1;" transform=" translate(-657.4558, -555.59)" d="M 655.83 553.35 a 8.34 8.34 0 0 0 -3.91 4.77 a 7 7 0 0 0 1.05 6.55 h 10.41 v -4.3 h -4 a 30 30 0 0 0 4 -3.86 v -10 A 23.68 23.68 0 0 1 655.83 553.35 Z" stroke-linecap="round"/>
</g>
		<g transform="matrix(1 0 0 1 61.36 108.44)" id="1084">
<path style="stroke: none; stroke-width: 1; stroke-dasharray: none; stroke-linecap: butt; stroke-dashoffset: 0; stroke-linejoin: miter; stroke-miterlimit: 4; is-custom-font: none; font-file-url: none; fill: rgb(223,181,181); fill-rule: nonzero; opacity: 1;" transform=" translate(-661.36, -558.44)" d="M 659.36 560.37 h 4 v -3.86 A 30 30 0 0 1 659.36 560.37 Z" stroke-linecap="round"/>
</g>
		<g transform="matrix(1 0 0 1 64.975 86.705)" id="1084">
<path style="stroke: none; stroke-width: 1; stroke-dasharray: none; stroke-linecap: butt; stroke-dashoffset: 0; stroke-linejoin: miter; stroke-miterlimit: 4; is-custom-font: none; font-file-url: none; fill: rgb(58,55,104); fill-rule: nonzero; opacity: 1;" transform=" translate(-664.975, -536.705)" d="M 666.57 536.71 a 17.07 17.07 0 0 0 -3.19 -9.82 v 19.63 A 17.11 17.11 0 0 0 666.57 536.71 Z" stroke-linecap="round"/>
</g>
		<g transform="matrix(1 0 0 1 10.09 216.125)" id="1084">
<path style="stroke: none; stroke-width: 1; stroke-dasharray: none; stroke-linecap: butt; stroke-dashoffset: 0; stroke-linejoin: miter; stroke-miterlimit: 4; is-custom-font: none; font-file-url: none; fill: rgb(58,55,104); fill-rule: nonzero; opacity: 1;" transform=" translate(-610.09, -666.125)" d="M 682.09 564.67 V 728.58 a 39 39 0 0 1 -39 39 h -105 v -16 H 639.32 a 24.06 24.06 0 0 0 24.06 -24.06 V 564.67 Z" stroke-linecap="round"/>
</g>
		<g transform="matrix(1 0 0 1 0.735 183.67)" id="1084">
<path style="stroke: none; stroke-width: 1; stroke-dasharray: none; stroke-linecap: butt; stroke-dashoffset: 0; stroke-linejoin: miter; stroke-miterlimit: 4; is-custom-font: none; font-file-url: none; fill: rgb(223,181,181); fill-rule: nonzero; opacity: 1;" transform=" translate(-600.735, -633.67)" d="M 651.92 558.12 a 8.34 8.34 0 0 1 3.91 -4.77 a 23.68 23.68 0 0 0 7.55 -6.83 V 526.89 c -4.61 -6.63 -13.72 -11.15 -24.22 -11.15 c -15.15 0 -27.42 9.39 -27.42 21 c 0 5.46 2.73 10.43 7.19 14.16 a 27.63 27.63 0 0 0 5.59 3.57 l 0.12 0.19 a 8.54 8.54 0 0 1 1.67 10 H 538.09 v 82 a 27.41 27.41 0 0 1 21.77 -11 c 15.59 0 28.22 13.6 28.22 30.37 s -12.63 30.38 -28.22 30.38 a 27.41 27.41 0 0 1 -21.77 -11 v 66.19 H 639.32 a 24.06 24.06 0 0 0 24.06 -24 V 564.67 H 653 A 7 7 0 0 1 651.92 558.12 Z" stroke-linecap="round"/>
</g>
		<g transform="matrix(1 0 0 1 248.5078 -156.175)" id="1084">
<linearGradient id="SVGID_3" gradientUnits="userSpaceOnUse" gradientTransform="matrix(1 0 0 1 0 0)" x1="848.51" y1="309.8" x2="848.51" y2="277.87">
<stop offset="0%" style="stop-color:rgb(128,128,128);stop-opacity: 0.25"/>
<stop offset="54%" style="stop-color:rgb(128,128,128);stop-opacity: 0.12"/>
<stop offset="100%" style="stop-color:rgb(128,128,128);stop-opacity: 0.1"/>
</linearGradient>
<path style="stroke: none; stroke-width: 1; stroke-dasharray: none; stroke-linecap: butt; stroke-dashoffset: 0; stroke-linejoin: miter; stroke-miterlimit: 4; is-custom-font: none; font-file-url: none; fill: url(#SVGID_3); fill-rule: nonzero; opacity: 1;" transform=" translate(-848.5078, -293.825)" d="M 842.18 309.8 c 5.58 -2.51 9.71 -6.74 11.12 -12.16 a 15.35 15.35 0 0 0 0.38 -2 a 17.83 17.83 0 0 0 0.64 -1.91 c 1.41 -5.44 -0.14 -11.07 -3.82 -15.88 l -7.31 28 h 0 Z" stroke-linecap="round"/>
</g>
		<g transform="matrix(1 0 0 1 239.0504 39.7092)" id="1084">
<linearGradient id="SVGID_4" gradientUnits="userSpaceOnUse" gradientTransform="matrix(1 0 0 1 0 0)" x1="839.07" y1="807.44" x2="839.07" y2="171.94">
<stop offset="0%" style="stop-color:rgb(128,128,128);stop-opacity: 0.25"/>
<stop offset="54%" style="stop-color:rgb(128,128,128);stop-opacity: 0.12"/>
<stop offset="100%" style="stop-color:rgb(128,128,128);stop-opacity: 0.1"/>
</linearGradient>
<path style="stroke: none; stroke-width: 1; stroke-dasharray: none; stroke-linecap: butt; stroke-dashoffset: 0; stroke-linejoin: miter; stroke-miterlimit: 4; is-custom-font: none; font-file-url: none; fill: url(#SVGID_4); fill-rule: nonzero; opacity: 1;" transform=" translate(-839.0504, -489.7092)" d="M 1010.92 299.29 c -1.14 -6.69 -22.26 -21.18 -22.26 -21.18 s -9.33 -5 -14.27 -10.78 c -3.16 -3.68 -4.15 -3.64 -4.45 -3.14 a 1.5 1.5 0 0 0 -0.68 -0.23 c -0.2 -0.14 -0.39 -0.27 -0.57 -0.42 l 0 0 a 1.35 1.35 0 0 0 -0.79 -1.37 c -0.24 -0.14 -0.48 -0.32 -0.72 -0.49 c -1.6 -2.69 -2.17 -6.5 -2.36 -9.82 c -0.24 -4.19 -5 -3.14 -6.63 -2.67 c -1.12 -2.1 -2.21 -4.28 -3.24 -6.46 a 11.85 11.85 0 0 0 1.13 -2.25 c 2.94 -6.39 2.3 -13.72 3.58 -20.48 c 0.92 -4.89 2.84 -10 2.46 -14.76 c 0 -0.11 0 -0.23 0 -0.35 c 0 0 0 0.05 0 0.07 a 12.65 12.65 0 0 0 -0.81 -3.48 c -0.85 -2.14 -2.33 -4 -3 -6.21 c -1.07 -3.23 -0.39 -6.79 -1.28 -10.06 c -1.11 -4.14 -4.61 -7.34 -8.57 -9.17 s -8.37 -2.46 -12.71 -3 c -10.85 -1.36 -22.38 -2.17 -32.28 2.39 a 5.8 5.8 0 0 1 -3 0.81 a 9.21 9.21 0 0 1 -2.74 -1.27 c -2.66 -1.32 -6 -0.48 -8.38 1.28 s -4 4.3 -5.57 6.76 s -3.29 5 -5.75 6.61 c -2.89 1.93 -6.71 2.58 -9 5.18 a 8.37 8.37 0 0 0 -1.86 4.32 s 0 -0.05 0 -0.07 a 5.46 5.46 0 0 0 0 0.57 c 0 0.15 0 0.31 0 0.46 s 0 0.25 0 0.37 c 0 0.43 0 0.85 0 1.27 a 27.3 27.3 0 0 0 1.93 7.1 a 9.88 9.88 0 0 0 2.62 4.46 c 3.48 2.83 9 0.16 13.2 1.74 c 0.37 0.13 0.72 0.3 1.07 0.46 c 0 0.16 -0.11 0.32 -0.16 0.49 a 33.19 33.19 0 0 0 -1.35 9.41 c 0 18.78 15.59 34 34.82 34 c 0.72 0 1.43 0 2.14 -0.08 c 0.1 0.37 0.21 0.75 0.3 1.11 a 36.87 36.87 0 0 1 1 12.72 l -0.21 -1.86 a 9.22 9.22 0 0 0 -1.45 -0.55 a 12.94 12.94 0 0 0 -4.32 -0.66 c -4.73 -0.06 -11.85 1.84 -19.45 11.06 c 0 0 -9.7 5.39 -12.55 6.69 a 1.34 1.34 0 0 0 -0.53 0.6 l 0 0 S 871.26 308 869.92 315.45 s -3 16 -3 16 s -3.24 9.66 -5.33 13.94 s -4 8.36 -4.18 10.22 s 0.76 5.94 -3.24 8.54 s -5 9.66 -5 9.66 s -2 1.88 -4.83 4.26 h -0.1 L 854.69 338 l 1.87 0.47 a 2.4 2.4 0 0 0 2.46 -0.84 a 2.23 2.23 0 0 0 0.41 -0.83 l 2.11 -8.12 l 0.85 -3.23 l 0.17 -0.66 l 1.23 -4.71 l -4.16 -1 l -4.87 -1.21 L 841 314.4 l 1.2 -4.6 h 0 l 1 -3.9 h 0 l 6.29 -24.14 h 0 l 1 -3.89 c -4 -5.18 -10.37 -9.39 -18.2 -11.34 c -15.1 -3.75 -29.72 2.35 -32.66 13.62 a 15.35 15.35 0 0 0 -0.39 2 a 14.59 14.59 0 0 0 -0.63 1.9 a 16.08 16.08 0 0 0 -0.4 6 q 0.06 0.49 0.15 1 a 20.58 20.58 0 0 0 3.83 8.57 a 27.32 27.32 0 0 0 4.67 4.85 l 0.07 0.22 a 9.13 9.13 0 0 1 1.31 4 c 0 0.2 0 0.41 0 0.62 a 9.2 9.2 0 0 1 -1.2 1.68 l -92.26 -22.93 l -1 3.89 h 0 L 693 371.8 h 0 a 30.12 30.12 0 0 1 9 -4.75 a 29.32 29.32 0 0 1 3.9 -1 l 0.47 -0.08 a 27.87 27.87 0 0 1 11.18 0.46 c 11.66 2.9 19.72 12.83 21.22 24.51 a 29.81 29.81 0 0 1 0.25 4.45 a 31.36 31.36 0 0 1 -0.6 5.65 c -5 15.18 -20.36 24.35 -35.28 20.64 a 28 28 0 0 1 -18.9 -16.15 l -1 3.9 h 0 L 661.8 491.38 l 81.71 20.32 h 0 l 0.88 -3.93 l 0.13 0 a 27.15 27.15 0 0 1 -5.64 -21.62 c 0 -0.13 0.08 -0.25 0.13 -0.38 c 0.1 -0.29 0.21 -0.57 0.32 -0.85 a 27.55 27.55 0 0 1 2 -3.95 c 0.4 -0.65 0.82 -1.28 1.27 -1.89 q 0.42 -0.57 0.87 -1.11 a 28.41 28.41 0 0 1 4.89 -4.66 l 0.58 -0.42 c 0.66 -0.47 1.34 -0.92 2 -1.34 c 0.41 -0.24 0.83 -0.48 1.25 -0.7 a 32.43 32.43 0 0 1 15.72 -3.75 a 34.51 34.51 0 0 1 7.8 1 A 32.34 32.34 0 0 1 795 481.51 a 29.23 29.23 0 0 1 1.64 2.8 a 27.38 27.38 0 0 1 2.83 9.14 a 25.89 25.89 0 0 1 -0.2 7.65 a 27.22 27.22 0 0 1 -10.58 13.69 l -1 3.76 l 0.11 0 l -0.15 0.11 l -1 3.75 l 18.66 4.64 L 831.74 426 c 7.13 -0.83 10.78 -4 10.78 -4.46 s 8.57 -5.21 13.32 -6.51 c 2.36 -0.64 5.09 -1.1 7.26 -1.56 c -2.56 12.71 -5 25 -4.78 25.72 c 0.07 0.28 0.53 -0.16 1.23 -1.12 a 5.4 5.4 0 0 0 -0.09 1.12 c 0 0.19 0.27 0.05 0.62 -0.34 l -0.05 0.24 s -14.84 28.71 -16 32 s 0.28 11.71 4.85 14.5 a 9.78 9.78 0 0 1 2.34 2.07 l -0.54 1.07 c -1.7 3.45 -3.21 7.29 -2.94 9.68 a 13.11 13.11 0 0 1 -2 8.64 s -12.85 39.71 -12.56 51.14 s -4.57 36.51 -4.57 36.51 s -5.28 16.16 -2.14 20.76 s 6.71 24.67 6.71 24.67 s 2.43 4.6 2.28 8.5 s 2.29 11 2.29 11 l 8 28.84 s -0.86 7.67 2.14 13.1 s 2.71 3.76 1.28 13.24 s 1.72 18.25 6.85 21 c 2 1.08 2.1 2.73 1.48 4.34 l 0 0 c -1.31 -0.51 -2.4 2.2 -3.05 4.39 l -0.66 0.63 l 0.44 0.11 c -0.28 1 -0.44 1.84 -0.44 1.84 s -13.41 11.15 -14.27 15.19 s -10.28 6.13 -10.28 6.13 s -14.27 3.9 -18 5.85 a 6.8 6.8 0 0 0 -3.94 5.41 a 14.84 14.84 0 0 0 0.52 5.46 c 1.42 5.71 21.4 6.27 31 4.74 s 29.39 -7.11 29.39 -7.11 s 20.84 -2 27 -4.46 s 1.28 -8.92 1.28 -8.92 s 0 -0.21 0 -0.6 c 0.15 -2.33 0.58 -10.78 -0.9 -13 c -1.11 -1.72 -1.08 -6 -0.92 -8.72 c 4.17 -7.5 -4.78 -30 -4.78 -30 s 1.71 -22 0.57 -25.22 s -6 -30.52 -6 -30.52 s -3 -12.4 -1.85 -14.49 s -0.72 -8.09 -0.72 -8.09 S 877 632.1 877.44 630 s -1.43 -5.85 -1.43 -5.85 s 14.56 -21.74 13.27 -25.78 s 0.58 -10.59 0.58 -10.59 s 1.83 -3.08 4 -6.77 c 2.7 -4.52 6 -9.93 7.08 -11.62 c 1.4 -2.15 4.77 -11.3 6.65 -16.57 c 0.8 -2.24 1.34 -3.78 1.34 -3.78 s 2.28 41 4.28 45.15 s 5 37.21 5 37.21 a 22.62 22.62 0 0 1 1.43 9.2 c -0.28 5.15 4.57 27.59 4.57 27.59 s 2.14 15.88 0.71 20.06 s -0.28 35 -0.28 35 s -7.85 6 -9.85 10.59 s 0.28 17.14 0.28 17.14 l 0.92 0.43 a 26.43 26.43 0 0 0 -1.63 5.42 c -0.28 2.65 -4.57 14.64 -4.14 16.31 s -1.85 6.83 -2.14 9.47 s -3.85 6.55 -4.14 7.95 a 34.11 34.11 0 0 1 -1.57 3.67 a 35 35 0 0 0 -1.85 5.66 c -1.43 5.86 15.55 6.83 15.55 6.83 c 25.12 4.6 29.69 -14.21 29.69 -14.21 s 3.14 -16.72 4.28 -18 a 2 2 0 0 0 0.19 -1.59 h 0 a 21.2 21.2 0 0 0 -3.62 -7.87 c -0.8 -0.93 -0.85 -3.32 -0.72 -5.46 a 12.62 12.62 0 0 0 2.15 -0.4 c 10.13 -2.92 6 -19.79 6 -19.79 s 6.85 -11.14 6.85 -15.46 s 2.43 -17.56 2.43 -17.56 c 8.71 -15.61 5.28 -53.51 6.71 -56.58 s -3 -14.49 -6.57 -19.65 s -2.14 -19.09 0 -23.13 s -2.14 -18 -2.14 -18 s 4.14 -27 4 -31.22 s 3.57 -16.58 3.57 -16.58 s 3.71 -6.41 2.85 -8.36 s 2.85 -7 1.86 -9.2 s 0.85 -9.06 2.71 -13.1 c 0.95 -2.07 2.13 -7.77 3 -12.84 c 0.1 -0.56 0.2 -1.12 0.29 -1.67 c 4.16 2.63 8 4.59 9.36 4.06 c 2.55 -1 -1.51 -14 -4.29 -22.1 c 0.48 -0.36 0.68 -0.63 0.48 -0.75 c -1.71 -1.12 0.19 -6.14 0.19 -6.14 c 10.09 -5.94 6.66 -10.4 3.43 -13 s -1.14 -10 -2.1 -13 s 1.15 -16.53 2.86 -26.38 a 18.88 18.88 0 0 0 -0.05 -6.46 c 1.83 -2.79 3.72 -5.71 5.38 -8.41 c 5.7 -9.29 17.88 -53.51 17.88 -53.51 l -0.08 -0.23 c 1.19 -2.35 2.08 -4.26 2.56 -5.53 C 1018.91 335 1012.06 306 1010.92 299.29 Z m -88.68 -25.46 l 0.26 -0.12 c 0 0.07 0 0.14 0 0.21 Z m -181.84 233 v 0 h 0 Z M 866.87 748.18 a 4.57 4.57 0 0 1 -1.81 -0.36 Z" stroke-linecap="round"/>
</g>
		<g transform="matrix(1 0 0 1 179.5625 -32.9851)" id="1084">
<path style="stroke: none; stroke-width: 1; stroke-dasharray: none; stroke-linecap: butt; stroke-dashoffset: 0; stroke-linejoin: miter; stroke-miterlimit: 4; is-custom-font: none; font-file-url: none; fill: rgb(254,194,190); fill-rule: nonzero; opacity: 1;" transform=" translate(-779.5624, -417.015)" d="M 761.15 425.89 c 8.23 3.12 27.36 3.46 35.86 3.46 c 2.58 0 4.18 0 4.18 0 l 5.45 -11.1 L 801.19 409 s -5 -1.38 -11.64 -2.58 c -9.8 -1.76 -23.21 -3.14 -29.6 0.82 C 749.23 413.87 750.43 421.82 761.15 425.89 Z" stroke-linecap="round"/>
</g>
		<g transform="matrix(1 0 0 1 198.09 -32.115)" id="1084">
<path style="stroke: none; stroke-width: 1; stroke-dasharray: none; stroke-linecap: butt; stroke-dashoffset: 0; stroke-linejoin: miter; stroke-miterlimit: 4; is-custom-font: none; font-file-url: none; fill: rgb(0,0,0); fill-rule: nonzero; opacity: 0.1;" transform=" translate(-798.09, -417.885)" d="M 797 429.35 c 2.58 0 4.18 0 4.18 0 l 5.45 -11.1 L 801.19 409 s -5 -1.38 -11.64 -2.58 C 794.94 410.38 807.9 419 797 429.35 Z" stroke-linecap="round"/>
</g>
		<g transform="matrix(1 0 0 1 242.3226 -86.8602)" id="1084">
<path style="stroke: none; stroke-width: 1; stroke-dasharray: none; stroke-linecap: butt; stroke-dashoffset: 0; stroke-linejoin: miter; stroke-miterlimit: 4; is-custom-font: none; font-file-url: none; fill: rgb(76,73,129); fill-rule: nonzero; opacity: 1;" transform=" translate(-842.3227, -363.1398)" d="M 887.27 293.12 l -2.4 -2.78 s -12.39 19.6 -13.69 27 s -3 15.9 -3 15.9 s -3.14 9.62 -5.18 13.87 s -3.88 8.32 -4.06 10.17 s 0.74 5.92 -3.15 8.51 s -4.8 9.62 -4.8 9.62 s -14.06 13.68 -21.46 14 s -28.66 4.07 -27.92 7.77 s -8.87 5.91 -12.76 6.84 s 25 12 8.14 26.26 c 0 0 10.72 2.22 11.83 4.8 s 12.39 -1.47 12.39 -1.47 s 2.41 -5.74 10.73 -6.11 s 12.57 -4.07 12.57 -4.62 s 8.32 -5.18 13 -6.47 s 10.72 -1.85 10.91 -3.15 s 27.74 -120.19 27.74 -120.19 Z" stroke-linecap="round"/>
</g>
		<g transform="matrix(1 0 0 1 242.3226 -86.8602)" id="1084">
<path style="stroke: none; stroke-width: 1; stroke-dasharray: none; stroke-linecap: butt; stroke-dashoffset: 0; stroke-linejoin: miter; stroke-miterlimit: 4; is-custom-font: none; font-file-url: none; fill: rgb(0,0,0); fill-rule: nonzero; opacity: 0.05;" transform=" translate(-842.3227, -363.1398)" d="M 887.27 293.12 l -2.4 -2.78 s -12.39 19.6 -13.69 27 s -3 15.9 -3 15.9 s -3.14 9.62 -5.18 13.87 s -3.88 8.32 -4.06 10.17 s 0.74 5.92 -3.15 8.51 s -4.8 9.62 -4.8 9.62 s -14.06 13.68 -21.46 14 s -28.66 4.07 -27.92 7.77 s -8.87 5.91 -12.76 6.84 s 25 12 8.14 26.26 c 0 0 10.72 2.22 11.83 4.8 s 12.39 -1.47 12.39 -1.47 s 2.41 -5.74 10.73 -6.11 s 12.57 -4.07 12.57 -4.62 s 8.32 -5.18 13 -6.47 s 10.72 -1.85 10.91 -3.15 s 27.74 -120.19 27.74 -120.19 Z" stroke-linecap="round"/>
</g>
		<g transform="matrix(1 0 0 1 325.1326 327.6506)" id="1084">
<path style="stroke: none; stroke-width: 1; stroke-dasharray: none; stroke-linecap: butt; stroke-dashoffset: 0; stroke-linejoin: miter; stroke-miterlimit: 4; is-custom-font: none; font-file-url: none; fill: rgb(202,132,150); fill-rule: nonzero; opacity: 1;" transform=" translate(-925.1327, -777.6506)" d="M 916.07 806.27 c 24.41 4.58 28.85 -14.15 28.85 -14.15 s 3.05 -16.64 4.16 -17.89 a 2 2 0 0 0 0.19 -1.58 h 0 a 21.77 21.77 0 0 0 -3.52 -7.84 c -1.52 -1.8 -0.28 -9.29 -0.28 -9.29 l -28.29 -7.21 s -2.5 5.68 -2.77 8.32 s -4.44 14.56 -4 16.23 s -1.8 6.79 -2.08 9.43 s -3.74 6.52 -4 7.9 a 32.69 32.69 0 0 1 -1.53 3.66 a 36.63 36.63 0 0 0 -1.8 5.63 C 899.57 805.3 916.07 806.27 916.07 806.27 Z" stroke-linecap="round"/>
</g>
		<g transform="matrix(1 0 0 1 325.1106 339.8206)" id="1084">
<path style="stroke: none; stroke-width: 1; stroke-dasharray: none; stroke-linecap: butt; stroke-dashoffset: 0; stroke-linejoin: miter; stroke-miterlimit: 4; is-custom-font: none; font-file-url: none; fill: rgb(0,0,0); fill-rule: nonzero; opacity: 0.1;" transform=" translate(-925.1106, -789.8206)" d="M 916.07 806.27 c 24.41 4.58 28.85 -14.15 28.85 -14.15 s 3.05 -16.64 4.16 -17.89 a 2 2 0 0 0 0.19 -1.58 l -5.88 16.84 s -4.85 10.12 -22.88 8.6 c -10.26 -0.87 -15.31 -2.77 -17.76 -4.25 a 36.63 36.63 0 0 0 -1.8 5.63 C 899.57 805.3 916.07 806.27 916.07 806.27 Z" stroke-linecap="round"/>
</g>
		<g transform="matrix(1 0 0 1 331.81 327.4952)" id="1084">
<path style="stroke: none; stroke-width: 1; stroke-dasharray: none; stroke-linecap: butt; stroke-dashoffset: 0; stroke-linejoin: miter; stroke-miterlimit: 4; is-custom-font: none; font-file-url: none; fill: rgb(0,0,0); fill-rule: nonzero; opacity: 0.1;" transform=" translate(-931.81, -777.4952)" d="M 935.07 779.92 s -6.1 0.14 -6.52 -4.85 Z" stroke-linecap="round"/>
</g>
		<g transform="matrix(1 0 0 1 146.96 60.19)" id="1084">
<polygon style="stroke: none; stroke-width: 1; stroke-dasharray: none; stroke-linecap: butt; stroke-dashoffset: 0; stroke-linejoin: miter; stroke-miterlimit: 4; is-custom-font: none; font-file-url: none; fill: rgb(223,181,181); fill-rule: nonzero; opacity: 1;" points="-1.65,-2.46 2.22,-1.47 1.37,2.46 -2.22,1.55 -1.65,-2.46 "/>
</g>
		<g transform="matrix(1 0 0 1 146.96 60.19)" id="1084">
<polygon style="stroke: none; stroke-width: 1; stroke-dasharray: none; stroke-linecap: butt; stroke-dashoffset: 0; stroke-linejoin: miter; stroke-miterlimit: 4; is-custom-font: none; font-file-url: none; fill: rgb(0,0,0); fill-rule: nonzero; opacity: 0.1;" points="-1.65,-2.46 2.22,-1.47 1.37,2.46 -2.22,1.55 -1.65,-2.46 "/>
</g>
		<g transform="matrix(0.2467 -0.9691 0.9691 0.2467 261.5892 -122.3905)" id="1084">
<rect style="stroke: none; stroke-width: 1; stroke-dasharray: none; stroke-linecap: butt; stroke-dashoffset: 0; stroke-linejoin: miter; stroke-miterlimit: 4; is-custom-font: none; font-file-url: none; fill: rgb(58,55,104); fill-rule: nonzero; opacity: 1;" x="-2.42" y="-2.085" rx="0" ry="0" width="4.84" height="4.17"/>
</g>
		<g transform="matrix(0.2467 -0.9691 0.9691 0.2467 248.1276 -125.822)" id="1084">
<rect style="stroke: none; stroke-width: 1; stroke-dasharray: none; stroke-linecap: butt; stroke-dashoffset: 0; stroke-linejoin: miter; stroke-miterlimit: 4; is-custom-font: none; font-file-url: none; fill: rgb(58,55,104); fill-rule: nonzero; opacity: 1;" x="-2.42" y="-6.915" rx="0" ry="0" width="4.84" height="13.83"/>
</g>
		<g transform="matrix(0.2467 -0.9691 0.9691 0.2467 257.191 -123.5024)" id="1084">
<rect style="stroke: none; stroke-width: 1; stroke-dasharray: none; stroke-linecap: butt; stroke-dashoffset: 0; stroke-linejoin: miter; stroke-miterlimit: 4; is-custom-font: none; font-file-url: none; fill: rgb(58,55,104); fill-rule: nonzero; opacity: 1;" x="-2.42" y="-2.445" rx="0" ry="0" width="4.84" height="4.89"/>
</g>
		<g transform="matrix(1 0 0 1 239.3236 -131.72)" id="1084">
<path style="stroke: none; stroke-width: 1; stroke-dasharray: none; stroke-linecap: butt; stroke-dashoffset: 0; stroke-linejoin: miter; stroke-miterlimit: 4; is-custom-font: none; font-file-url: none; fill: rgb(223,181,181); fill-rule: nonzero; opacity: 1;" transform=" translate(-839.3236, -318.28)" d="M 842.23 319.52 c -0.32 0.15 -0.63 0.31 -0.94 0.44 l 0.78 0.2 l -1.2 4.69 l -5.93 -1.51 a 7 7 0 0 1 0.61 -6.59 a 8.27 8.27 0 0 1 5 -3.66 a 26 26 0 0 0 3.71 -1.38 Z" stroke-linecap="round"/>
</g>
		<g transform="matrix(1 0 0 1 259.69 -115.0941)" id="1084">
<path style="stroke: none; stroke-width: 1; stroke-dasharray: none; stroke-linecap: butt; stroke-dashoffset: 0; stroke-linejoin: miter; stroke-miterlimit: 4; is-custom-font: none; font-file-url: none; fill: rgb(58,55,104); fill-rule: nonzero; opacity: 1;" transform=" translate(-859.69, -334.9059)" d="M 856.38 339.77 l 1.81 0.47 a 2.29 2.29 0 0 0 2.79 -1.66 L 863 330.5 l -4 -1 Z" stroke-linecap="round"/>
</g>
		<g transform="matrix(1 0 0 1 249.8536 -152.24)" id="1084">
<path style="stroke: none; stroke-width: 1; stroke-dasharray: none; stroke-linecap: butt; stroke-dashoffset: 0; stroke-linejoin: miter; stroke-miterlimit: 4; is-custom-font: none; font-file-url: none; fill: rgb(58,55,104); fill-rule: nonzero; opacity: 1;" transform=" translate(-849.8536, -297.76)" d="M 855 299.61 c -1.38 5.4 -5.39 9.61 -10.81 12.1 l 7.1 -27.9 C 854.89 288.6 856.4 294.21 855 299.61 Z" stroke-linecap="round"/>
</g>
		<g transform="matrix(1 0 0 1 223.36 -23.575)" id="1084">
<path style="stroke: none; stroke-width: 1; stroke-dasharray: none; stroke-linecap: butt; stroke-dashoffset: 0; stroke-linejoin: miter; stroke-miterlimit: 4; is-custom-font: none; font-file-url: none; fill: rgb(58,55,104); fill-rule: nonzero; opacity: 1;" transform=" translate(-823.36, -426.425)" d="M 853.86 339.13 a 2.29 2.29 0 0 1 -1.65 -2.78 l 2.06 -8.09 l -13.4 -3.41 L 800 485.39 a 26.66 26.66 0 0 1 -8.71 34.22 l -0.95 3.74 L 808.47 528 l 47.91 -188.19 Z" stroke-linecap="round"/>
</g>
		<g transform="matrix(1 0 0 1 255.5697 -115.985)" id="1084">
<path style="stroke: none; stroke-width: 1; stroke-dasharray: none; stroke-linecap: butt; stroke-dashoffset: 0; stroke-linejoin: miter; stroke-miterlimit: 4; is-custom-font: none; font-file-url: none; fill: rgb(58,55,104); fill-rule: nonzero; opacity: 1;" transform=" translate(-855.5697, -334.015)" d="M 852.21 336.35 a 2.29 2.29 0 0 0 1.65 2.78 l 2.52 0.64 l 2.62 -10.3 l -4.73 -1.21 Z" stroke-linecap="round"/>
</g>
		<g transform="matrix(1 0 0 1 160.13 -57.9371)" id="1084">
<path style="stroke: none; stroke-width: 1; stroke-dasharray: none; stroke-linecap: butt; stroke-dashoffset: 0; stroke-linejoin: miter; stroke-miterlimit: 4; is-custom-font: none; font-file-url: none; fill: rgb(223,181,181); fill-rule: nonzero; opacity: 1;" transform=" translate(-760.13, -392.063)" d="M 835.54 316.75 a 8.35 8.35 0 0 1 5 -3.66 a 26.64 26.64 0 0 0 3.7 -1.38 l 7.11 -27.9 a 31.79 31.79 0 0 0 -17.69 -11.28 c -14.67 -3.74 -28.89 2.33 -31.74 13.55 c -1.35 5.29 0.07 10.78 3.48 15.5 a 27 27 0 0 0 4.53 4.83 l 0.07 0.22 a 8.54 8.54 0 0 1 -0.86 10.14 l -89.66 -22.83 l -20.23 79.48 A 27.44 27.44 0 0 1 723 368.08 c 15.11 3.85 24 20.15 19.86 36.4 S 723.16 430.8 708.05 427 a 27.43 27.43 0 0 1 -18.37 -16.07 l -20.77 81.56 l 79.42 20.21 a 27.38 27.38 0 0 1 -5.08 -23.48 c 3.85 -15.1 20.14 -24 36.4 -19.86 A 31.27 31.27 0 0 1 800 485.39 l 40.87 -160.54 L 835 323.34 A 7 7 0 0 1 835.54 316.75 Z" stroke-linecap="round"/>
</g>
		<g transform="matrix(1 0 0 1 241.76 -130.16)" id="1084">
<path style="stroke: none; stroke-width: 1; stroke-dasharray: none; stroke-linecap: butt; stroke-dashoffset: 0; stroke-linejoin: miter; stroke-miterlimit: 4; is-custom-font: none; font-file-url: none; fill: rgb(223,181,181); fill-rule: nonzero; opacity: 1;" transform=" translate(-841.76, -319.84)" d="M 842.06 320.16 l 0.17 -0.64 c -0.31 0.15 -0.62 0.31 -0.94 0.45 Z" stroke-linecap="round"/>
</g>
		<g transform="matrix(1 0 0 1 166.55 -50.2871)" id="1084">
<path style="stroke: none; stroke-width: 1; stroke-dasharray: none; stroke-linecap: butt; stroke-dashoffset: 0; stroke-linejoin: miter; stroke-miterlimit: 4; is-custom-font: none; font-file-url: none; fill: rgb(0,0,0); fill-rule: nonzero; opacity: 0.1;" transform=" translate(-766.55, -399.713)" d="M 860.19 324.78 l -4.73 -1.21 l -13.39 -3.41 h 0 l 0.17 -0.64 h 0 l 2 -7.81 a 26 26 0 0 1 -3.71 1.38 a 8.27 8.27 0 0 0 -5 3.66 a 9.67 9.67 0 0 0 -0.74 1.58 a 9.59 9.59 0 0 1 0.73 -1.58 a 8.35 8.35 0 0 1 5 -3.66 a 26.64 26.64 0 0 0 3.7 -1.38 l 7.11 -27.9 a 31.79 31.79 0 0 0 -17.69 -11.28 c -14.67 -3.74 -28.89 2.33 -31.74 13.55 c -1.35 5.29 0.07 10.78 3.48 15.5 a 27 27 0 0 0 4.53 4.83 l 0.07 0.22 a 8.54 8.54 0 0 1 -0.86 10.14 l -89.66 -22.83 l -20.23 79.48 A 27.44 27.44 0 0 1 723 368.08 c 15.11 3.85 24 20.15 19.86 36.4 S 723.16 430.8 708.05 427 a 27.43 27.43 0 0 1 -18.37 -16.07 l -20.77 81.56 l 79.42 20.21 a 27.38 27.38 0 0 1 -5.08 -23.48 c 3.85 -15.1 20.14 -24 36.4 -19.86 A 31.27 31.27 0 0 1 800 485.39 a 26.66 26.66 0 0 1 -8.71 34.22 l -0.95 3.74 L 808.47 528 l 47.91 -188.19 l 1.81 0.47 a 2.29 2.29 0 0 0 2.79 -1.66 L 863 330.5 l 1.19 -4.69 Z m -18.44 -5 c -0.15 0.07 -0.3 0.15 -0.45 0.21 h 0 Z m -6.8 3.59 h 0 l 5.93 1.51 h 0 Z" stroke-linecap="round"/>
</g>
		<g transform="matrix(1 0 0 1 249.8452 -152.24)" id="1084">
<path style="stroke: none; stroke-width: 1; stroke-dasharray: none; stroke-linecap: butt; stroke-dashoffset: 0; stroke-linejoin: miter; stroke-miterlimit: 4; is-custom-font: none; font-file-url: none; fill: rgb(0,0,0); fill-rule: nonzero; opacity: 0.1;" transform=" translate(-849.8452, -297.76)" d="M 855 299.61 c 1.37 -5.4 -0.14 -11 -3.71 -15.8 l -7.1 27.9 C 849.64 309.22 853.65 305 855 299.61 Z" stroke-linecap="round"/>
</g>
		<g transform="matrix(0.2467 -0.9691 0.9691 0.2467 262.5709 -126.2572)" id="1084">
<rect style="stroke: none; stroke-width: 1; stroke-dasharray: none; stroke-linecap: butt; stroke-dashoffset: 0; stroke-linejoin: miter; stroke-miterlimit: 4; is-custom-font: none; font-file-url: none; fill: rgb(58,55,104); fill-rule: nonzero; opacity: 1;" x="-2.42" y="-2.085" rx="0" ry="0" width="4.84" height="4.17"/>
</g>
		<g transform="matrix(0.2467 -0.9691 0.9691 0.2467 249.1092 -129.6888)" id="1084">
<rect style="stroke: none; stroke-width: 1; stroke-dasharray: none; stroke-linecap: butt; stroke-dashoffset: 0; stroke-linejoin: miter; stroke-miterlimit: 4; is-custom-font: none; font-file-url: none; fill: rgb(58,55,104); fill-rule: nonzero; opacity: 1;" x="-2.42" y="-6.915" rx="0" ry="0" width="4.84" height="13.83"/>
</g>
		<g transform="matrix(0.2467 -0.9691 0.9691 0.2467 258.1751 -127.3888)" id="1084">
<rect style="stroke: none; stroke-width: 1; stroke-dasharray: none; stroke-linecap: butt; stroke-dashoffset: 0; stroke-linejoin: miter; stroke-miterlimit: 4; is-custom-font: none; font-file-url: none; fill: rgb(58,55,104); fill-rule: nonzero; opacity: 1;" x="-2.42" y="-2.445" rx="0" ry="0" width="4.84" height="4.89"/>
</g>
		<g transform="matrix(1 0 0 1 240.2977 -135.57)" id="1084">
<path style="stroke: none; stroke-width: 1; stroke-dasharray: none; stroke-linecap: butt; stroke-dashoffset: 0; stroke-linejoin: miter; stroke-miterlimit: 4; is-custom-font: none; font-file-url: none; fill: rgb(223,181,181); fill-rule: nonzero; opacity: 1;" transform=" translate(-840.2977, -314.43)" d="M 843.22 315.64 l -0.94 0.45 l 0.77 0.19 L 841.86 321 l -5.93 -1.51 a 6.94 6.94 0 0 1 0.6 -6.59 a 8.32 8.32 0 0 1 5 -3.66 a 25.87 25.87 0 0 0 3.7 -1.38 Z" stroke-linecap="round"/>
</g>
		<g transform="matrix(1 0 0 1 260.71 -118.9704)" id="1084">
<path style="stroke: none; stroke-width: 1; stroke-dasharray: none; stroke-linecap: butt; stroke-dashoffset: 0; stroke-linejoin: miter; stroke-miterlimit: 4; is-custom-font: none; font-file-url: none; fill: rgb(58,55,104); fill-rule: nonzero; opacity: 1;" transform=" translate(-860.71, -331.0296)" d="M 857.36 335.9 l 1.82 0.46 A 2.29 2.29 0 0 0 862 334.7 l 2.06 -8.08 l -4 -1 Z" stroke-linecap="round"/>
</g>
		<g transform="matrix(1 0 0 1 250.8509 -156.12)" id="1084">
<path style="stroke: none; stroke-width: 1; stroke-dasharray: none; stroke-linecap: butt; stroke-dashoffset: 0; stroke-linejoin: miter; stroke-miterlimit: 4; is-custom-font: none; font-file-url: none; fill: rgb(58,55,104); fill-rule: nonzero; opacity: 1;" transform=" translate(-850.8509, -293.88)" d="M 856 295.74 c -1.37 5.39 -5.38 9.6 -10.81 12.09 l 7.11 -27.9 C 855.88 284.72 857.39 290.33 856 295.74 Z" stroke-linecap="round"/>
</g>
		<g transform="matrix(1 0 0 1 224.36 -27.455)" id="1084">
<path style="stroke: none; stroke-width: 1; stroke-dasharray: none; stroke-linecap: butt; stroke-dashoffset: 0; stroke-linejoin: miter; stroke-miterlimit: 4; is-custom-font: none; font-file-url: none; fill: rgb(58,55,104); fill-rule: nonzero; opacity: 1;" transform=" translate(-824.36, -422.545)" d="M 854.85 335.26 a 2.29 2.29 0 0 1 -1.65 -2.79 l 2 -8.08 L 841.86 321 L 801 481.52 a 26.62 26.62 0 0 1 -8.71 34.21 l -0.95 3.74 l 18.14 4.62 l 47.9 -188.19 Z" stroke-linecap="round"/>
</g>
		<g transform="matrix(1 0 0 1 256.5637 -119.855)" id="1084">
<path style="stroke: none; stroke-width: 1; stroke-dasharray: none; stroke-linecap: butt; stroke-dashoffset: 0; stroke-linejoin: miter; stroke-miterlimit: 4; is-custom-font: none; font-file-url: none; fill: rgb(58,55,104); fill-rule: nonzero; opacity: 1;" transform=" translate(-856.5638, -330.145)" d="M 853.2 332.47 a 2.29 2.29 0 0 0 1.65 2.79 l 2.51 0.64 L 860 325.59 l -4.74 -1.2 Z" stroke-linecap="round"/>
</g>
		<g transform="matrix(1 0 0 1 161.115 -61.8351)" id="1084">
<path style="stroke: none; stroke-width: 1; stroke-dasharray: none; stroke-linecap: butt; stroke-dashoffset: 0; stroke-linejoin: miter; stroke-miterlimit: 4; is-custom-font: none; font-file-url: none; fill: rgb(223,181,181); fill-rule: nonzero; opacity: 1;" transform=" translate(-761.115, -388.1649)" d="M 836.53 312.87 a 8.32 8.32 0 0 1 5 -3.66 a 25.87 25.87 0 0 0 3.7 -1.38 l 7.1 -27.9 a 31.78 31.78 0 0 0 -17.68 -11.28 c -14.68 -3.73 -28.89 2.33 -31.75 13.56 c -1.34 5.28 0.07 10.77 3.49 15.49 a 27.06 27.06 0 0 0 4.53 4.84 l 0.07 0.21 a 8.56 8.56 0 0 1 -0.86 10.14 l -89.67 -22.82 L 700.2 369.54 A 27.42 27.42 0 0 1 724 364.21 c 15.1 3.84 24 20.14 19.86 36.4 S 724.15 426.92 709 423.08 A 27.46 27.46 0 0 1 690.66 407 L 669.9 488.56 l 79.41 20.22 a 27.38 27.38 0 0 1 -5.07 -23.48 c 3.84 -15.11 20.14 -24 36.4 -19.86 A 31.2 31.2 0 0 1 801 481.52 L 841.86 321 l -5.93 -1.51 A 7 7 0 0 1 836.53 312.87 Z" stroke-linecap="round"/>
</g>
		<g transform="matrix(1 0 0 1 242.745 -134.035)" id="1084">
<path style="stroke: none; stroke-width: 1; stroke-dasharray: none; stroke-linecap: butt; stroke-dashoffset: 0; stroke-linejoin: miter; stroke-miterlimit: 4; is-custom-font: none; font-file-url: none; fill: rgb(223,181,181); fill-rule: nonzero; opacity: 1;" transform=" translate(-842.745, -315.965)" d="M 843.05 316.29 l 0.16 -0.65 c -0.31 0.15 -0.62 0.31 -0.93 0.45 Z" stroke-linecap="round"/>
</g>
		<g transform="matrix(1 0 0 1 303.5277 154.4282)" id="1084">
<path style="stroke: none; stroke-width: 1; stroke-dasharray: none; stroke-linecap: butt; stroke-dashoffset: 0; stroke-linejoin: miter; stroke-miterlimit: 4; is-custom-font: none; font-file-url: none; fill: rgb(206,221,249); fill-rule: nonzero; opacity: 1;" transform=" translate(-903.5277, -604.4282)" d="M 829 616 c 3 4.57 6.52 24.55 6.52 24.55 s 2.36 4.57 2.22 8.46 s 2.22 11 2.22 11 l 7.77 28.71 s -0.84 7.63 2.08 13 s 2.63 3.74 1.25 13.17 s 1.66 18.17 6.65 21 s -2.22 9.29 -2.22 9.29 s 31.9 8.6 38.56 3.33 s -3.47 -31.35 -3.47 -31.35 s 1.67 -21.91 0.56 -25.1 s -5.83 -30.37 -5.83 -30.37 s -2.91 -12.35 -1.8 -14.43 s -0.69 -8 -0.69 -8 s -4.72 -6.66 -4.3 -8.74 s -1.39 -5.82 -1.39 -5.82 S 891.25 603 890 598.93 s 0.55 -10.54 0.55 -10.54 l 3.94 -6.74 c 2.63 -4.5 5.81 -9.89 6.88 -11.57 c 1.36 -2.14 4.64 -11.24 6.47 -16.49 l 1.3 -3.76 s 2.22 40.78 4.16 44.94 s 4.85 37 4.85 37 a 23 23 0 0 1 1.39 9.15 c -0.28 5.13 4.44 27.46 4.44 27.46 s 2.08 15.81 0.69 20 s -0.28 34.82 -0.28 34.82 s -7.63 6 -9.57 10.54 s 0.28 17 0.28 17 s 22.19 11.1 32 8.19 s 5.82 -19.7 5.82 -19.7 s 6.66 -11.09 6.66 -15.39 S 962 706.41 962 706.41 c 8.46 -15.53 5.13 -53.25 6.52 -56.3 s -2.92 -14.43 -6.38 -19.56 s -2.08 -19 0 -23 S 960 589.64 960 589.64 s 4 -26.91 3.88 -31.07 s 3.47 -16.5 3.47 -16.5 s 3.6 -6.38 2.77 -8.33 s 2.77 -6.93 1.8 -9.15 s 0.84 -9 2.64 -13 c 0.92 -2.06 2.07 -7.74 3 -12.77 c 0.85 -4.79 1.48 -9 1.48 -9 l -22.89 -18.45 l -57.14 -15 l -21.49 -6.93 l -20.95 33 a 83.89 83.89 0 0 0 -4.07 7.43 c -1.65 3.43 -3.12 7.25 -2.86 9.63 a 13.31 13.31 0 0 1 -1.94 8.6 s -12.49 39.52 -12.21 50.9 s -4.44 36.33 -4.44 36.33 S 825.92 611.41 829 616 Z" stroke-linecap="round"/>
</g>
		<g transform="matrix(1 0 0 1 339.3197 -189.9189)" id="1084">
<path style="stroke: none; stroke-width: 1; stroke-dasharray: none; stroke-linecap: butt; stroke-dashoffset: 0; stroke-linejoin: miter; stroke-miterlimit: 4; is-custom-font: none; font-file-url: none; fill: rgb(254,194,190); fill-rule: nonzero; opacity: 1;" transform=" translate(-939.3198, -260.0812)" d="M 913.46 294.5 c 0.88 -0.36 61.21 -25.28 52.9 -30.23 c -4.93 -2.94 -11 -15.4 -15.16 -25.15 c -2.9 -6.81 -4.87 -12.3 -4.87 -12.3 s -48.42 -8.6 -31.09 21.08 a 55 55 0 0 1 6.11 14.62 C 926.29 282.74 913.86 294.13 913.46 294.5 Z" stroke-linecap="round"/>
</g>
		<g transform="matrix(1 0 0 1 331.3469 -205.9089)" id="1084">
<path style="stroke: none; stroke-width: 1; stroke-dasharray: none; stroke-linecap: butt; stroke-dashoffset: 0; stroke-linejoin: miter; stroke-miterlimit: 4; is-custom-font: none; font-file-url: none; fill: rgb(0,0,0); fill-rule: nonzero; opacity: 0.1;" transform=" translate(-931.3469, -244.0912)" d="M 915.24 247.9 a 55 55 0 0 1 6.11 14.62 a 33.81 33.81 0 0 0 28.59 -20.09 a 32.2 32.2 0 0 0 1.26 -3.31 c -2.9 -6.81 -4.87 -12.3 -4.87 -12.3 S 897.91 218.22 915.24 247.9 Z" stroke-linecap="round"/>
</g>
		<g transform="matrix(1 0 0 1 318.9717 -222.3643)" id="1084">
<path style="stroke: none; stroke-width: 1; stroke-dasharray: none; stroke-linecap: butt; stroke-dashoffset: 0; stroke-linejoin: miter; stroke-miterlimit: 4; is-custom-font: none; font-file-url: none; fill: rgb(254,194,190); fill-rule: nonzero; opacity: 1;" transform=" translate(-918.9717, -227.6356)" d="M 885.14 227.65 a 33.83 33.83 0 1 0 1.32 -9.37 A 33.84 33.84 0 0 0 885.14 227.65 Z" stroke-linecap="round"/>
</g>
		<g transform="matrix(1 0 0 1 315.77 28.075)" id="1084">
<path style="stroke: none; stroke-width: 1; stroke-dasharray: none; stroke-linecap: butt; stroke-dashoffset: 0; stroke-linejoin: miter; stroke-miterlimit: 4; is-custom-font: none; font-file-url: none; fill: rgb(0,0,0); fill-rule: nonzero; opacity: 0.1;" transform=" translate(-915.77, -478.075)" d="M 852.5 489.86 c 3.54 3.22 4.9 9.35 4.9 9.35 s 16.65 11.37 15.54 4.16 s 8.6 -36.34 8.6 -36.34 l -1.11 39.67 s 53.25 -2.5 57.14 -6.38 S 964.2 489 964.2 489 s 7 5.59 13.36 9.83 c 0.85 -4.79 1.48 -9 1.48 -9 l -22.89 -18.45 l -57.14 -15 l -21.49 -6.93 l -20.95 33 A 83.89 83.89 0 0 0 852.5 489.86 Z" stroke-linecap="round"/>
</g>
		<g transform="matrix(1 0 0 1 316.6704 -72.3175)" id="1084">
<path style="stroke: none; stroke-width: 1; stroke-dasharray: none; stroke-linecap: butt; stroke-dashoffset: 0; stroke-linejoin: miter; stroke-miterlimit: 4; is-custom-font: none; font-file-url: none; fill: rgb(255,255,255); fill-rule: nonzero; opacity: 1;" transform=" translate(-916.6705, -377.6825)" d="M 850.75 486.73 c 4.44 2.77 6.1 10.26 6.1 10.26 s 16.64 11.37 15.53 4.16 s 8.6 -36.34 8.6 -36.34 l -1.11 39.67 S 933.13 502 937 498.1 s 26.63 -11.37 26.63 -11.37 s 19.7 15.81 23.3 14.42 s -6.38 -28.29 -6.38 -28.29 L 970.3 315.31 s 2.77 -46.88 -1.39 -48.55 a 6 6 0 0 1 -1.75 -1.09 c -2.74 -2.46 -3.56 -7.46 -3.8 -11.66 c -0.27 -5 -6.93 -2.5 -6.93 -2.5 l 3.88 5 l -34.37 20.9 l -0.3 0.18 a 38 38 0 0 0 -4.13 -1.87 c -3 -1.17 -7.09 -2.27 -9.74 -1.18 a 9.42 9.42 0 0 0 -3.64 3.28 a 41.22 41.22 0 0 0 -4.68 9.48 L 891 308.37 s -6.38 28 -6.38 29.13 s -1.94 26.63 -4.16 29.4 s -4.44 16.64 -3.61 20.8 s -1.39 19.7 -1.39 19.7 c -9.15 7.49 -13.86 33 -13.86 33 S 847.14 469 846 472.3 S 846.31 484 850.75 486.73 Z" stroke-linecap="round"/>
</g>
		<g transform="matrix(1 0 0 1 346.55 -178.76)" id="1084">
<path style="stroke: none; stroke-width: 1; stroke-dasharray: none; stroke-linecap: butt; stroke-dashoffset: 0; stroke-linejoin: miter; stroke-miterlimit: 4; is-custom-font: none; font-file-url: none; fill: rgb(0,0,0); fill-rule: nonzero; opacity: 0.1;" transform=" translate(-946.55, -271.24)" d="M 925.94 278.51 c 3.37 5 13.11 12 13.11 12 l 28.11 -23.75 c -2.74 -2.46 -3.56 -7.46 -3.8 -11.67 c -0.27 -5 -6.93 -2.49 -6.93 -2.49 l 0.81 1 a 4.48 4.48 0 0 1 -1.21 6.57 Z" stroke-linecap="round"/>
</g>
		<g transform="matrix(1 0 0 1 346.55 -179.8675)" id="1084">
<path style="stroke: none; stroke-width: 1; stroke-dasharray: none; stroke-linecap: butt; stroke-dashoffset: 0; stroke-linejoin: miter; stroke-miterlimit: 4; is-custom-font: none; font-file-url: none; fill: rgb(255,255,255); fill-rule: nonzero; opacity: 1;" transform=" translate(-946.55, -270.1325)" d="M 925.94 277.4 c 3.37 5 13.11 12 13.11 12 l 28.11 -23.75 c -2.74 -2.46 -3.56 -7.46 -3.8 -11.66 c -0.27 -5 -6.93 -2.5 -6.93 -2.5 l 0.81 1 a 4.47 4.47 0 0 1 -1.21 6.56 Z" stroke-linecap="round"/>
</g>
		<g transform="matrix(1 0 0 1 319.8 -167.2678)" id="1084">
<path style="stroke: none; stroke-width: 1; stroke-dasharray: none; stroke-linecap: butt; stroke-dashoffset: 0; stroke-linejoin: miter; stroke-miterlimit: 4; is-custom-font: none; font-file-url: none; fill: rgb(0,0,0); fill-rule: nonzero; opacity: 0.1;" transform=" translate(-919.8, -282.7322)" d="M 912.94 281.14 c 3.63 4.34 8.78 9.27 8.54 6.8 s 3.07 -7.92 5.18 -10.36 a 15.35 15.35 0 0 0 -10.08 0.28 A 9.34 9.34 0 0 0 912.94 281.14 Z" stroke-linecap="round"/>
</g>
		<g transform="matrix(1 0 0 1 319.075 -168.658)" id="1084">
<path style="stroke: none; stroke-width: 1; stroke-dasharray: none; stroke-linecap: butt; stroke-dashoffset: 0; stroke-linejoin: miter; stroke-miterlimit: 4; is-custom-font: none; font-file-url: none; fill: rgb(255,255,255); fill-rule: nonzero; opacity: 1;" transform=" translate(-919.075, -281.342)" d="M 912.39 279.47 c 3.63 4.35 8.77 9.27 8.53 6.81 s 2.73 -6.47 4.84 -8.91 c -3 -1.17 -7.08 -2.27 -9.74 -1.17 A 9.3 9.3 0 0 0 912.39 279.47 Z" stroke-linecap="round"/>
</g>
		<g transform="matrix(1 0 0 1 321.48 -149.67)" id="1084">
<circle style="stroke: none; stroke-width: 1; stroke-dasharray: none; stroke-linecap: butt; stroke-dashoffset: 0; stroke-linejoin: miter; stroke-miterlimit: 4; is-custom-font: none; font-file-url: none; fill: rgb(255,113,141); fill-rule: nonzero; opacity: 1;" cx="0" cy="0" r="2.22"/>
</g>
		<g transform="matrix(1 0 0 1 304.65 -89.76)" id="1084">
<circle style="stroke: none; stroke-width: 1; stroke-dasharray: none; stroke-linecap: butt; stroke-dashoffset: 0; stroke-linejoin: miter; stroke-miterlimit: 4; is-custom-font: none; font-file-url: none; fill: rgb(255,113,141); fill-rule: nonzero; opacity: 1;" cx="0" cy="0" r="2.22"/>
</g>
		<g transform="matrix(1 0 0 1 285.61 -29.1)" id="1084">
<circle style="stroke: none; stroke-width: 1; stroke-dasharray: none; stroke-linecap: butt; stroke-dashoffset: 0; stroke-linejoin: miter; stroke-miterlimit: 4; is-custom-font: none; font-file-url: none; fill: rgb(255,113,141); fill-rule: nonzero; opacity: 1;" cx="0" cy="0" r="2.22"/>
</g>
		<g transform="matrix(1 0 0 1 285.05 36.91)" id="1084">
<circle style="stroke: none; stroke-width: 1; stroke-dasharray: none; stroke-linecap: butt; stroke-dashoffset: 0; stroke-linejoin: miter; stroke-miterlimit: 4; is-custom-font: none; font-file-url: none; fill: rgb(255,113,141); fill-rule: nonzero; opacity: 1;" cx="0" cy="0" r="2.22"/>
</g>
		<g transform="matrix(1 0 0 1 311.68 -121.38)" id="1084">
<circle style="stroke: none; stroke-width: 1; stroke-dasharray: none; stroke-linecap: butt; stroke-dashoffset: 0; stroke-linejoin: miter; stroke-miterlimit: 4; is-custom-font: none; font-file-url: none; fill: rgb(255,113,141); fill-rule: nonzero; opacity: 1;" cx="0" cy="0" r="2.22"/>
</g>
		<g transform="matrix(1 0 0 1 296.7 -59.8)" id="1084">
<circle style="stroke: none; stroke-width: 1; stroke-dasharray: none; stroke-linecap: butt; stroke-dashoffset: 0; stroke-linejoin: miter; stroke-miterlimit: 4; is-custom-font: none; font-file-url: none; fill: rgb(255,113,141); fill-rule: nonzero; opacity: 1;" cx="0" cy="0" r="2.22"/>
</g>
		<g transform="matrix(1 0 0 1 282.09 0.67)" id="1084">
<circle style="stroke: none; stroke-width: 1; stroke-dasharray: none; stroke-linecap: butt; stroke-dashoffset: 0; stroke-linejoin: miter; stroke-miterlimit: 4; is-custom-font: none; font-file-url: none; fill: rgb(255,113,141); fill-rule: nonzero; opacity: 1;" cx="0" cy="0" r="2.22"/>
</g>
		<g transform="matrix(1 0 0 1 285.42 44.31)" id="1084">
<circle style="stroke: none; stroke-width: 1; stroke-dasharray: none; stroke-linecap: butt; stroke-dashoffset: 0; stroke-linejoin: miter; stroke-miterlimit: 4; is-custom-font: none; font-file-url: none; fill: rgb(255,113,141); fill-rule: nonzero; opacity: 1;" cx="0" cy="0" r="2.22"/>
</g>
		<g transform="matrix(1 0 0 1 365.0071 -73.6661)" id="1084">
<path style="stroke: none; stroke-width: 1; stroke-dasharray: none; stroke-linecap: butt; stroke-dashoffset: 0; stroke-linejoin: miter; stroke-miterlimit: 4; is-custom-font: none; font-file-url: none; fill: rgb(0,0,0); fill-rule: nonzero; opacity: 0.1;" transform=" translate(-965.0072, -376.3339)" d="M 967.16 267 s -0.37 -3.33 4.43 2.41 s 13.87 10.72 13.87 10.72 s 20.53 14.43 21.64 21.08 s 7.76 35.51 4.25 45.12 S 981 402 981 402 s 7 8.33 5.37 18.13 s -3.7 23.3 -2.78 26.26 s -1.11 10.35 2 12.94 s 6.47 7 -3.33 12.94 c 0 0 -1.85 5 -0.19 6.11 s -24.59 12.57 -35 6.47 s -29 -54.92 -29.4 -65.83 s 5.73 -47 9.06 -55.48 s 13.32 -41.61 17.57 -49 S 967.16 267 967.16 267 Z" stroke-linecap="round"/>
</g>
		<g transform="matrix(1 0 0 1 366.1271 -73.6661)" id="1084">
<path style="stroke: none; stroke-width: 1; stroke-dasharray: none; stroke-linecap: butt; stroke-dashoffset: 0; stroke-linejoin: miter; stroke-miterlimit: 4; is-custom-font: none; font-file-url: none; fill: rgb(76,73,129); fill-rule: nonzero; opacity: 1;" transform=" translate(-966.1272, -376.3339)" d="M 968.26 267 s -0.37 -3.33 4.44 2.41 s 13.87 10.72 13.87 10.72 s 20.53 14.43 21.64 21.08 s 7.76 35.51 4.25 45.12 S 982.13 402 982.13 402 s 7 8.33 5.37 18.13 s -3.7 23.3 -2.78 26.26 s -1.11 10.35 2 12.94 s 6.47 7 -3.33 12.94 c 0 0 -1.85 5 -0.19 6.11 s -24.59 12.57 -35 6.47 s -29 -54.92 -29.4 -65.83 s 5.73 -47 9.06 -55.48 s 13.32 -41.61 17.57 -49 S 968.26 267 968.26 267 Z" stroke-linecap="round"/>
</g>
		<g transform="matrix(1 0 0 1 367.9781 -136.91)" id="1084">
<path style="stroke: none; stroke-width: 1; stroke-dasharray: none; stroke-linecap: butt; stroke-dashoffset: 0; stroke-linejoin: miter; stroke-miterlimit: 4; is-custom-font: none; font-file-url: none; fill: rgb(0,0,0); fill-rule: nonzero; opacity: 0.1;" transform=" translate(-967.978, -313.09)" d="M 975.66 298.48 s -15.9 17.57 -15.35 29.22 C 960.31 327.7 960.13 308.83 975.66 298.48 Z" stroke-linecap="round"/>
</g>
		<g transform="matrix(1 0 0 1 344.5 -90.035)" id="1084">
<path style="stroke: none; stroke-width: 1; stroke-dasharray: none; stroke-linecap: butt; stroke-dashoffset: 0; stroke-linejoin: miter; stroke-miterlimit: 4; is-custom-font: none; font-file-url: none; fill: rgb(0,0,0); fill-rule: nonzero; opacity: 0.1;" transform=" translate(-944.5, -359.965)" d="M 953.66 327.33 c 0 0.55 -10.73 40.49 -10.17 45.49 s -3.15 19.78 -3.15 19.78 l -5 -1.29 s 3.88 -20.53 4.62 -28.11 S 953.66 327.33 953.66 327.33 Z" stroke-linecap="round"/>
</g>
		<g transform="matrix(1 0 0 1 359.1785 6.7255)" id="1084">
<path style="stroke: none; stroke-width: 1; stroke-dasharray: none; stroke-linecap: butt; stroke-dashoffset: 0; stroke-linejoin: miter; stroke-miterlimit: 4; is-custom-font: none; font-file-url: none; fill: rgb(0,0,0); fill-rule: nonzero; opacity: 0.1;" transform=" translate(-959.1785, -456.7255)" d="M 949.4 441.24 c 0.37 0.55 25.34 28.84 18.31 30.88 S 949.4 441.24 949.4 441.24 Z" stroke-linecap="round"/>
</g>
		<g transform="matrix(1 0 0 1 375.5196 -5.8047)" id="1084">
<path style="stroke: none; stroke-width: 1; stroke-dasharray: none; stroke-linecap: butt; stroke-dashoffset: 0; stroke-linejoin: miter; stroke-miterlimit: 4; is-custom-font: none; font-file-url: none; fill: rgb(0,0,0); fill-rule: nonzero; opacity: 0.1;" transform=" translate(-975.5196, -444.1953)" d="M 969.93 434 c 0.55 0.37 10 20.34 11.09 15 s -8.13 14.61 -9.61 -0.18 Z" stroke-linecap="round"/>
</g>
		<g transform="matrix(1 0 0 1 291.6905 -93.6463)" id="1084">
<path style="stroke: none; stroke-width: 1; stroke-dasharray: none; stroke-linecap: butt; stroke-dashoffset: 0; stroke-linejoin: miter; stroke-miterlimit: 4; is-custom-font: none; font-file-url: none; fill: rgb(0,0,0); fill-rule: nonzero; opacity: 0.1;" transform=" translate(-891.6906, -356.3537)" d="M 922 273.33 s -10.31 -6.29 -23.26 9.8 c 0 0 -9.43 5.36 -12.2 6.66 s -5.92 35.69 -5.92 35.69 s -6.1 14.79 -4.44 23.3 s -4.8 37.72 -4.8 37.72 S 860.64 439 861 440.5 s 10.91 -16.46 10.73 -25.34 s 8.87 -36.61 10.17 -38.28 s 10.17 -49.18 10.17 -49.18 s 7.21 -20.16 11.83 -26.82 s 10.36 -19.23 12.76 -21.45 a 24.44 24.44 0 0 1 5.73 -3.7 Z" stroke-linecap="round"/>
</g>
		<g transform="matrix(1 0 0 1 291.1603 -93.6474)" id="1084">
<path style="stroke: none; stroke-width: 1; stroke-dasharray: none; stroke-linecap: butt; stroke-dashoffset: 0; stroke-linejoin: miter; stroke-miterlimit: 4; is-custom-font: none; font-file-url: none; fill: rgb(76,73,129); fill-rule: nonzero; opacity: 1;" transform=" translate(-891.1603, -356.3526)" d="M 922.13 273.33 s -11.56 -6.29 -24.5 9.8 c 0 0 -9.44 5.36 -12.21 6.66 s -5.92 35.69 -5.92 35.69 s -6.1 14.79 -4.44 23.3 s -4.8 37.72 -4.8 37.72 s -10.73 52.52 -10.36 54 s 10.91 -16.46 10.73 -25.34 s 8.87 -36.61 10.17 -38.28 S 891 327.7 891 327.7 s 7.21 -20.16 11.83 -26.82 s 10.36 -19.23 12.76 -21.45 s 6.84 -3.7 6.84 -3.7 Z" stroke-linecap="round"/>
</g>
		<g transform="matrix(1 0 0 1 245.9992 -54.1338)" id="1084">
<path style="stroke: none; stroke-width: 1; stroke-dasharray: none; stroke-linecap: butt; stroke-dashoffset: 0; stroke-linejoin: miter; stroke-miterlimit: 4; is-custom-font: none; font-file-url: none; fill: rgb(254,194,190); fill-rule: nonzero; opacity: 1;" transform=" translate(-845.9992, -395.8663)" d="M 871.37 388.9 s -22 -14.42 -32.64 -7.3 s -28 17.2 -10.91 24.5 S 868.59 412 868.59 412 Z" stroke-linecap="round"/>
</g>
		<g transform="matrix(1 0 0 1 296.6472 97.77)" id="1084">
<path style="stroke: none; stroke-width: 1; stroke-dasharray: none; stroke-linecap: butt; stroke-dashoffset: 0; stroke-linejoin: miter; stroke-miterlimit: 4; is-custom-font: none; font-file-url: none; fill: rgb(0,0,0); fill-rule: nonzero; opacity: 0.1;" transform=" translate(-896.6473, -547.77)" d="M 886.67 528.06 c 3.28 7 6 42.38 7.82 53.59 c 2.63 -4.5 5.81 -9.89 6.88 -11.57 c 1.36 -2.14 4.64 -11.24 6.47 -16.49 c -2.09 -5.08 -7.86 -19.64 -7.86 -25 c 0 -6.52 -10.54 -14.7 -10.54 -14.7 S 882.79 519.74 886.67 528.06 Z" stroke-linecap="round"/>
</g>
		<g transform="matrix(1 0 0 1 341.1436 184.4702)" id="1084">
<path style="stroke: none; stroke-width: 1; stroke-dasharray: none; stroke-linecap: butt; stroke-dashoffset: 0; stroke-linejoin: miter; stroke-miterlimit: 4; is-custom-font: none; font-file-url: none; fill: rgb(0,0,0); fill-rule: nonzero; opacity: 0.1;" transform=" translate(-941.1436, -634.4702)" d="M 957.4 636.65 s -24.41 -10.4 -31.62 -3 S 957.4 636.65 957.4 636.65 Z" stroke-linecap="round"/>
</g>
		<g transform="matrix(1 0 0 1 352.6678 199.0056)" id="1084">
<path style="stroke: none; stroke-width: 1; stroke-dasharray: none; stroke-linecap: butt; stroke-dashoffset: 0; stroke-linejoin: miter; stroke-miterlimit: 4; is-custom-font: none; font-file-url: none; fill: rgb(0,0,0); fill-rule: nonzero; opacity: 0.1;" transform=" translate(-952.6678, -649.0056)" d="M 943.67 640.81 S 968.36 654.68 959.9 657 S 943.67 640.81 943.67 640.81 Z" stroke-linecap="round"/>
</g>
		<g transform="matrix(1 0 0 1 273.6071 180.3942)" id="1084">
<path style="stroke: none; stroke-width: 1; stroke-dasharray: none; stroke-linecap: butt; stroke-dashoffset: 0; stroke-linejoin: miter; stroke-miterlimit: 4; is-custom-font: none; font-file-url: none; fill: rgb(0,0,0); fill-rule: nonzero; opacity: 0.1;" transform=" translate(-873.6071, -630.3942)" d="M 869.89 628.75 s 10.54 0.69 6.52 2.77 S 869.89 628.75 869.89 628.75 Z" stroke-linecap="round"/>
</g>
		<g transform="matrix(1 0 0 1 269.4409 189.7721)" id="1084">
<path style="stroke: none; stroke-width: 1; stroke-dasharray: none; stroke-linecap: butt; stroke-dashoffset: 0; stroke-linejoin: miter; stroke-miterlimit: 4; is-custom-font: none; font-file-url: none; fill: rgb(0,0,0); fill-rule: nonzero; opacity: 0.1;" transform=" translate(-869.4409, -639.7721)" d="M 856.71 631.94 c 0.14 0.69 30.65 10.54 24.69 15 S 856.71 631.94 856.71 631.94 Z" stroke-linecap="round"/>
</g>
		<g transform="matrix(1 0 0 1 342.5874 263.8827)" id="1084">
<path style="stroke: none; stroke-width: 1; stroke-dasharray: none; stroke-linecap: butt; stroke-dashoffset: 0; stroke-linejoin: miter; stroke-miterlimit: 4; is-custom-font: none; font-file-url: none; fill: rgb(0,0,0); fill-rule: nonzero; opacity: 0.1;" transform=" translate(-942.5873, -713.8827)" d="M 953.79 716.82 c -4.57 -0.7 -30.09 -12.49 -20.11 -4 S 953.79 716.82 953.79 716.82 Z" stroke-linecap="round"/>
</g>
		<g transform="matrix(1 0 0 1 334.7509 279.9044)" id="1084">
<path style="stroke: none; stroke-width: 1; stroke-dasharray: none; stroke-linecap: butt; stroke-dashoffset: 0; stroke-linejoin: miter; stroke-miterlimit: 4; is-custom-font: none; font-file-url: none; fill: rgb(0,0,0); fill-rule: nonzero; opacity: 0.1;" transform=" translate(-934.7508, -729.9044)" d="M 941.17 726.11 s -2.22 8.6 -10.68 7.49 S 941.17 726.11 941.17 726.11 Z" stroke-linecap="round"/>
</g>
		<g transform="matrix(1 0 0 1 338.1915 292.7093)" id="1084">
<path style="stroke: none; stroke-width: 1; stroke-dasharray: none; stroke-linecap: butt; stroke-dashoffset: 0; stroke-linejoin: miter; stroke-miterlimit: 4; is-custom-font: none; font-file-url: none; fill: rgb(0,0,0); fill-rule: nonzero; opacity: 0.1;" transform=" translate(-938.1915, -742.7093)" d="M 948.25 743.58 c -1.53 -0.41 -19.7 -8.73 -20.11 -4.85 s 17.33 10.68 18.72 8.6 A 7.44 7.44 0 0 0 948.25 743.58 Z" stroke-linecap="round"/>
</g>
		<g transform="matrix(1 0 0 1 275.85 281.9427)" id="1084">
<path style="stroke: none; stroke-width: 1; stroke-dasharray: none; stroke-linecap: butt; stroke-dashoffset: 0; stroke-linejoin: miter; stroke-miterlimit: 4; is-custom-font: none; font-file-url: none; fill: rgb(0,0,0); fill-rule: nonzero; opacity: 0.1;" transform=" translate(-875.85, -731.9426)" d="M 889.44 733.6 c -2.22 -0.14 -23 -6.8 -27.18 -0.84 Z" stroke-linecap="round"/>
</g>
		<g transform="matrix(1 0 0 1 266.608 286.4769)" id="1084">
<path style="stroke: none; stroke-width: 1; stroke-dasharray: none; stroke-linecap: butt; stroke-dashoffset: 0; stroke-linejoin: miter; stroke-miterlimit: 4; is-custom-font: none; font-file-url: none; fill: rgb(0,0,0); fill-rule: nonzero; opacity: 0.1;" transform=" translate(-866.6079, -736.4768)" d="M 870.58 737.48 s -3.61 -3.19 -7.21 -1.53 S 870.58 737.48 870.58 737.48 Z" stroke-linecap="round"/>
</g>
		<g transform="matrix(1 0 0 1 314.27 324.305)" id="1084">
<path style="stroke: none; stroke-width: 1; stroke-dasharray: none; stroke-linecap: butt; stroke-dashoffset: 0; stroke-linejoin: miter; stroke-miterlimit: 4; is-custom-font: none; font-file-url: none; fill: rgb(0,0,0); fill-rule: nonzero; opacity: 0.1;" transform=" translate(-914.27, -774.305)" d="M 916.63 771.88 a 6.21 6.21 0 0 1 -4.72 4.85 Z" stroke-linecap="round"/>
</g>
		<g transform="matrix(1 0 0 1 254.448 315.2021)" id="1084">
<path style="stroke: none; stroke-width: 1; stroke-dasharray: none; stroke-linecap: butt; stroke-dashoffset: 0; stroke-linejoin: miter; stroke-miterlimit: 4; is-custom-font: none; font-file-url: none; fill: rgb(202,132,150); fill-rule: nonzero; opacity: 1;" transform=" translate(-854.4479, -765.202)" d="M 810.8 784.91 c 1.39 5.69 20.81 6.24 30.1 4.72 s 28.57 -7.08 28.57 -7.08 s 20.25 -1.94 26.21 -4.43 s 1.25 -8.88 1.25 -8.88 s 0 -0.22 0 -0.6 c 0.14 -2.32 0.56 -10.73 -0.87 -13 c -1.66 -2.64 -0.69 -11.24 -0.69 -11.24 s -28.71 5.55 -29.27 2.92 s -5 -6.38 -7.07 -7.21 s -3.61 6.93 -3.61 6.93 s -13 11.1 -13.87 15.12 s -10 6.1 -10 6.1 s -13.87 3.88 -17.48 5.82 a 6.71 6.71 0 0 0 -3.82 5.39 A 15 15 0 0 0 810.8 784.91 Z" stroke-linecap="round"/>
</g>
		<g transform="matrix(1 0 0 1 254.4636 329.4981)" id="1084">
<path style="stroke: none; stroke-width: 1; stroke-dasharray: none; stroke-linecap: butt; stroke-dashoffset: 0; stroke-linejoin: miter; stroke-miterlimit: 4; is-custom-font: none; font-file-url: none; fill: rgb(0,0,0); fill-rule: nonzero; opacity: 0.1;" transform=" translate(-854.4637, -779.4981)" d="M 810.8 784.91 c 1.39 5.69 20.81 6.24 30.1 4.72 s 28.57 -7.08 28.57 -7.08 s 20.25 -1.94 26.21 -4.43 s 1.25 -8.88 1.25 -8.88 s 0 -0.22 0 -0.6 l -29 6.43 s -14.29 6.1 -23.44 6.1 c -8 0 -25.9 3.27 -34.2 -1.69 A 15 15 0 0 0 810.8 784.91 Z" stroke-linecap="round"/>
</g>
		<g transform="matrix(1 0 0 1 253.52 319.1)" id="1084">
<path style="stroke: none; stroke-width: 1; stroke-dasharray: none; stroke-linecap: butt; stroke-dashoffset: 0; stroke-linejoin: miter; stroke-miterlimit: 4; is-custom-font: none; font-file-url: none; fill: rgb(0,0,0); fill-rule: nonzero; opacity: 0.1;" transform=" translate(-853.52, -769.1)" d="M 850.05 763 s 1.39 9.15 6.94 12.2 Z" stroke-linecap="round"/>
</g>
		<g transform="matrix(1 0 0 1 319.6485 -232.4397)" id="1084">
<path style="stroke: none; stroke-width: 1; stroke-dasharray: none; stroke-linecap: butt; stroke-dashoffset: 0; stroke-linejoin: miter; stroke-miterlimit: 4; is-custom-font: none; font-file-url: none; fill: rgb(0,0,0); fill-rule: nonzero; opacity: 0.1;" transform=" translate(-919.6485, -217.5602)" d="M 886.46 218.28 a 9.92 9.92 0 0 0 1.65 0.69 c 2.6 0.7 5.14 -1.06 7.45 -2.46 s 5.5 -2.44 7.5 -0.62 c 2.61 2.37 0.72 7.43 3.41 9.72 c 1.7 1.45 4.4 0.95 6.29 2.14 s 2.46 3.8 2.94 6.05 s 1.44 4.82 3.64 5.48 s 4.25 -0.79 6.42 -0.71 c 0.45 0 1 0.07 1.28 -0.25 a 1.35 1.35 0 0 0 0.21 -1 a 21.37 21.37 0 0 1 0.71 -8 c 0.89 -2.56 3 -4.87 5.64 -5.28 c 3.89 -0.6 7.16 2.81 9.45 6 a 98.28 98.28 0 0 1 6.56 10.56 a 6.78 6.78 0 0 1 0.33 0.73 a 33.84 33.84 0 1 0 -63.48 -23 Z" stroke-linecap="round"/>
</g>
		<g transform="matrix(1 0 0 1 314.5456 -240.0186)" id="1084">
<path style="stroke: none; stroke-width: 1; stroke-dasharray: none; stroke-linecap: butt; stroke-dashoffset: 0; stroke-linejoin: miter; stroke-miterlimit: 4; is-custom-font: none; font-file-url: none; fill: rgb(154,94,127); fill-rule: nonzero; opacity: 1;" transform=" translate(-914.5457, -209.9814)" d="M 943.05 229.48 c -2.29 -3.22 -5.56 -6.62 -9.46 -6 c -2.67 0.41 -4.73 2.72 -5.63 5.27 a 21.18 21.18 0 0 0 -0.7 8 a 1.4 1.4 0 0 1 -0.22 1 c -0.31 0.33 -0.83 0.28 -1.28 0.26 c -2.17 -0.08 -4.33 1.33 -6.42 0.71 s -3.16 -3.23 -3.64 -5.48 s -1 -4.82 -2.94 -6.05 s -4.59 -0.69 -6.29 -2.15 c -2.69 -2.28 -0.79 -7.35 -3.41 -9.72 c -2 -1.81 -5.19 -0.77 -7.5 0.63 s -4.85 3.15 -7.46 2.45 c -0.88 -0.24 -1.67 -0.74 -2.53 -1.07 c -4.11 -1.57 -9.44 1.09 -12.82 -1.73 a 9.91 9.91 0 0 1 -2.56 -4.43 a 28.19 28.19 0 0 1 -1.87 -7.07 a 9.45 9.45 0 0 1 1.88 -6.89 c 2.2 -2.59 5.92 -3.24 8.73 -5.15 c 2.39 -1.64 4 -4.13 5.58 -6.58 s 3.11 -5 5.42 -6.73 s 5.55 -2.59 8.13 -1.28 a 9 9 0 0 0 2.67 1.27 a 5.52 5.52 0 0 0 2.95 -0.81 c 9.62 -4.53 20.82 -3.73 31.37 -2.38 c 4.22 0.54 8.5 1.17 12.35 3 s 7.25 5 8.33 9.12 c 0.86 3.26 0.2 6.81 1.24 10 c 0.7 2.18 2.14 4 3 6.19 c 2.25 5.85 -0.44 12.27 -1.58 18.43 c -1.24 6.73 -0.62 14 -3.48 20.38 c -0.56 1.25 -1.19 3.44 -2.6 2.62 c -1 -0.61 -2.06 -4.16 -2.66 -5.27 A 97.17 97.17 0 0 0 943.05 229.48 Z" stroke-linecap="round"/>
</g>
		<g transform="matrix(1 0 0 1 335.8981 -81.5498)" id="1084">
<path style="stroke: none; stroke-width: 1; stroke-dasharray: none; stroke-linecap: butt; stroke-dashoffset: 0; stroke-linejoin: miter; stroke-miterlimit: 4; is-custom-font: none; font-file-url: none; fill: rgb(0,0,0); fill-rule: nonzero; opacity: 0.1;" transform=" translate(-935.8982, -368.4502)" d="M 1004 337.87 l 5 14.24 s -11.84 44 -17.39 53.25 s -13.68 21.08 -13.68 21.08 s -13.68 6.85 -29.59 3.7 S 886 418.68 886 418.68 s -3.89 0.74 -5.92 -2.22 S 867.48 412 867.48 412 s -12.2 -17.75 2.78 -25.15 c 0 0 1.85 4.07 9.8 1.3 s 10.35 2.21 10.35 2.21 s 13 2.59 20.16 1.67 s 25.15 -1.3 27 -2.78 a 2.38 2.38 0 0 1 3.33 0.19 s 4.43 -1.66 5.91 -3.33 s 3.52 1.85 3.52 1.85 s 2.59 -1.48 1.85 -3.33 s 2.4 -8.87 2.4 -8.87 s 1.48 -4.63 0.56 -8.33 s 4.62 -17 4.62 -17 a 23.53 23.53 0 0 0 -0.74 -6.66 c -0.93 -3.32 7 -10 7 -10 s 7.76 -37.73 24.22 -25.34 S 1004 337.87 1004 337.87 Z" stroke-linecap="round"/>
</g>
		<g transform="matrix(1 0 0 1 336.9831 -81.5498)" id="1084">
<path style="stroke: none; stroke-width: 1; stroke-dasharray: none; stroke-linecap: butt; stroke-dashoffset: 0; stroke-linejoin: miter; stroke-miterlimit: 4; is-custom-font: none; font-file-url: none; fill: rgb(76,73,129); fill-rule: nonzero; opacity: 1;" transform=" translate(-936.9832, -368.4502)" d="M 1005.06 337.87 l 5 14.24 s -11.84 44 -17.39 53.25 S 979 426.44 979 426.44 s -13.68 6.85 -29.59 3.7 s -62.32 -11.46 -62.32 -11.46 s -3.88 0.74 -5.91 -2.22 S 868.59 412 868.59 412 s -12.2 -17.75 2.78 -25.15 c 0 0 1.85 4.07 9.8 1.3 s 10.35 2.21 10.35 2.21 s 13 2.59 20.16 1.67 s 25.15 -1.3 27 -2.78 a 2.38 2.38 0 0 1 3.33 0.19 s 4.43 -1.66 5.91 -3.33 s 3.52 1.85 3.52 1.85 s 2.59 -1.48 1.85 -3.33 s 2.4 -8.87 2.4 -8.87 s 1.48 -4.63 0.55 -8.33 s 4.63 -17 4.63 -17 a 23.53 23.53 0 0 0 -0.74 -6.66 c -0.93 -3.32 7 -10 7 -10 s 7.76 -37.73 24.22 -25.34 S 1005.06 337.87 1005.06 337.87 Z" stroke-linecap="round"/>
</g>
		<g transform="matrix(1 0 0 1 285.3067 -43.7816)" id="1084">
<path style="stroke: none; stroke-width: 1; stroke-dasharray: none; stroke-linecap: butt; stroke-dashoffset: 0; stroke-linejoin: miter; stroke-miterlimit: 4; is-custom-font: none; font-file-url: none; fill: rgb(0,0,0); fill-rule: nonzero; opacity: 0.1;" transform=" translate(-885.3067, -406.2184)" d="M 884.87 397.41 c 0.18 1.3 4.25 6.47 2.77 7.4 s -3.88 0.37 -1.66 3.33 s 2 7.39 0.55 6.84 s -3.88 -7.21 -3.88 -9.8 S 884.87 397.41 884.87 397.41 Z" stroke-linecap="round"/>
</g>
		<g transform="matrix(1 0 0 1 346.1138 -47.0002)" id="1084">
<path style="stroke: none; stroke-width: 1; stroke-dasharray: none; stroke-linecap: butt; stroke-dashoffset: 0; stroke-linejoin: miter; stroke-miterlimit: 4; is-custom-font: none; font-file-url: none; fill: rgb(0,0,0); fill-rule: nonzero; opacity: 0.1;" transform=" translate(-946.1138, -402.9998)" d="M 939.79 394.45 S 940.9 407.4 950 411.1 S 939.79 394.45 939.79 394.45 Z" stroke-linecap="round"/>
</g>
		<g transform="matrix(1 0 0 1 363.0613 -54.3072)" id="1084">
<path style="stroke: none; stroke-width: 1; stroke-dasharray: none; stroke-linecap: butt; stroke-dashoffset: 0; stroke-linejoin: miter; stroke-miterlimit: 4; is-custom-font: none; font-file-url: none; fill: rgb(0,0,0); fill-rule: nonzero; opacity: 0.1;" transform=" translate(-963.0613, -395.6928)" d="M 958.65 390 c 0.55 0.19 12.94 6.85 7.4 10.73 S 958.65 390 958.65 390 Z" stroke-linecap="round"/>
</g>
		<g transform="matrix(1 0 0 1 366.0212 -65.5044)" id="1084">
<path style="stroke: none; stroke-width: 1; stroke-dasharray: none; stroke-linecap: butt; stroke-dashoffset: 0; stroke-linejoin: miter; stroke-miterlimit: 4; is-custom-font: none; font-file-url: none; fill: rgb(0,0,0); fill-rule: nonzero; opacity: 0.1;" transform=" translate(-966.0212, -384.4956)" d="M 959.39 380.77 s 18.12 3.7 12 6.84 S 959.39 380.77 959.39 380.77 Z" stroke-linecap="round"/>
</g>
		<g transform="matrix(1 0 0 1 344.0133 -223.7435)" id="1084">
<path style="stroke: none; stroke-width: 1; stroke-dasharray: none; stroke-linecap: butt; stroke-dashoffset: 0; stroke-linejoin: miter; stroke-miterlimit: 4; is-custom-font: none; font-file-url: none; fill: rgb(0,0,0); fill-rule: nonzero; opacity: 0.1;" transform=" translate(-944.0134, -226.2565)" d="M 928 225.58 c 0.9 -2.55 3 -4.86 5.63 -5.27 c 3.9 -0.6 7.17 2.81 9.46 6 a 98.28 98.28 0 0 1 6.56 10.56 c 0.6 1.11 1.62 4.65 2.66 5.26 c 1.41 0.83 2 -1.36 2.6 -2.61 c 2.86 -6.36 2.24 -13.65 3.48 -20.38 c 0.73 -3.93 2.08 -8 2.38 -11.9 c 0.43 4.84 -1.47 9.93 -2.38 14.85 c -1.24 6.73 -0.62 14 -3.48 20.39 c -0.56 1.25 -1.19 3.44 -2.6 2.61 c -1 -0.61 -2.06 -4.15 -2.66 -5.26 a 98.28 98.28 0 0 0 -6.56 -10.56 c -2.29 -3.21 -5.56 -6.62 -9.46 -6 c -2.67 0.41 -4.73 2.72 -5.63 5.27 a 14.67 14.67 0 0 0 -0.74 4.16 A 19.36 19.36 0 0 1 928 225.58 Z" stroke-linecap="round"/>
</g>
		<g transform="matrix(1 0 0 1 297.7781 -229.9856)" id="1084">
<path style="stroke: none; stroke-width: 1; stroke-dasharray: none; stroke-linecap: butt; stroke-dashoffset: 0; stroke-linejoin: miter; stroke-miterlimit: 4; is-custom-font: none; font-file-url: none; fill: rgb(0,0,0); fill-rule: nonzero; opacity: 0.1;" transform=" translate(-897.778, -220.0144)" d="M 870.19 208 a 9.89 9.89 0 0 0 2.56 4.44 c 3.38 2.82 8.71 0.16 12.82 1.73 c 0.86 0.32 1.65 0.83 2.53 1.07 c 2.61 0.69 5.16 -1.06 7.46 -2.46 s 5.51 -2.43 7.5 -0.62 c 2.62 2.37 0.72 7.43 3.41 9.72 c 1.7 1.45 4.4 1 6.29 2.15 s 2.46 3.79 2.94 6 s 1.43 4.82 3.64 5.48 s 4.25 -0.78 6.42 -0.7 c 0.45 0 1 0.07 1.28 -0.26 a 0.94 0.94 0 0 0 0.15 -0.28 c 0 0.75 0 1.49 0.07 2.23 a 1.41 1.41 0 0 1 -0.22 1 c -0.31 0.32 -0.83 0.27 -1.28 0.25 c -2.17 -0.07 -4.33 1.33 -6.42 0.71 s -3.16 -3.22 -3.64 -5.48 s -1 -4.82 -2.94 -6 s -4.59 -0.7 -6.29 -2.15 c -2.69 -2.29 -0.79 -7.36 -3.41 -9.72 c -2 -1.82 -5.19 -0.78 -7.5 0.62 s -4.85 3.15 -7.46 2.46 c -0.88 -0.24 -1.67 -0.75 -2.53 -1.07 c -4.11 -1.57 -9.44 1.09 -12.82 -1.73 a 9.94 9.94 0 0 1 -2.56 -4.44 a 28.22 28.22 0 0 1 -1.87 -7.06 a 11.43 11.43 0 0 1 0.06 -2.48 A 29.75 29.75 0 0 0 870.19 208 Z" stroke-linecap="round"/>
</g>
		<g transform="matrix(1 0 0 1 -383.5168 334.5575)" id="1084">
<path style="stroke: none; stroke-width: 1; stroke-dasharray: none; stroke-linecap: butt; stroke-dashoffset: 0; stroke-linejoin: miter; stroke-miterlimit: 4; is-custom-font: none; font-file-url: none; fill: rgb(223,181,181); fill-rule: nonzero; opacity: 1;" transform=" translate(-216.4832, -784.5575)" d="M 234.94 767.24 s -42.28 -2.55 -37.3 27.07 c 0 0 -1 5.24 3.76 7.62 c 0 0 0.07 -2.2 4.34 -1.46 a 19.9 19.9 0 0 0 4.59 0.23 a 9.56 9.56 0 0 0 5.61 -2.32 h 0 s 11.89 -4.91 16.51 -24.34 c 0 0 3.42 -4.23 3.28 -5.32 l -7.13 3 s 2.44 5.15 0.52 9.43 c 0 0 -0.23 -9.24 -1.6 -9 c -0.28 0 -3.71 1.78 -3.71 1.78 s 4.2 9 1 15.49 c 0 0 1.2 -11.05 -2.34 -14.84 l -5 2.93 s 4.9 9.26 1.58 16.82 c 0 0 0.85 -11.59 -2.64 -16.1 l -4.55 3.55 s 4.61 9.12 1.8 15.39 c 0 0 -0.37 -13.49 -2.78 -14.51 c 0 0 -4 3.51 -4.59 5 c 0 0 3.15 6.63 1.19 10.13 c 0 0 -1.2 -9 -2.18 -9 c 0 0 -4 5.95 -4.38 10 c 0 0 0.17 -6.07 3.42 -10.61 a 11.91 11.91 0 0 0 -6.07 3.15 s 0.61 -4.21 7.05 -4.58 c 0 0 3.28 -4.52 4.15 -4.79 c 0 0 -6.4 -0.54 -10.28 1.18 c 0 0 3.42 -4 11.46 -2.16 l 4.49 -3.67 s -8.43 -1.15 -12 0.12 c 0 0 4.11 -3.51 13.21 -0.95 l 4.89 -2.93 s -7.18 -1.55 -11.46 -1 c 0 0 4.51 -2.43 12.9 0.21 l 3.49 -1.57 s -5.26 -1 -6.8 -1.2 s -1.63 -0.59 -1.63 -0.59 a 18.26 18.26 0 0 1 9.89 1.1 S 235.06 767.7 234.94 767.24 Z" stroke-linecap="round"/>
</g>
		<g transform="matrix(1 0 0 1 -394.18 354.51)" id="1084">
<ellipse style="stroke: none; stroke-width: 1; stroke-dasharray: none; stroke-linecap: butt; stroke-dashoffset: 0; stroke-linejoin: miter; stroke-miterlimit: 4; is-custom-font: none; font-file-url: none; fill: rgb(223,181,181); fill-rule: nonzero; opacity: 0.1;" cx="0" cy="0" rx="29.92" ry="5.06"/>
</g>
		<g transform="matrix(1 0 0 1 -294.3713 248.9345)" id="1084">
<path style="stroke: none; stroke-width: 1; stroke-dasharray: none; stroke-linecap: butt; stroke-dashoffset: 0; stroke-linejoin: miter; stroke-miterlimit: 4; is-custom-font: none; font-file-url: none; fill: rgb(223,181,181); fill-rule: nonzero; opacity: 1;" transform=" translate(-305.6287, -698.9344)" d="M 316 689.17 s -23.84 -1.44 -21 15.27 a 4.08 4.08 0 0 0 2.12 4.29 s 0 -1.24 2.45 -0.82 a 11.73 11.73 0 0 0 2.59 0.13 a 5.47 5.47 0 0 0 3.16 -1.31 h 0 S 312 704 314.64 693 c 0 0 1.93 -2.39 1.85 -3 l -4 1.71 s 1.37 2.91 0.29 5.32 c 0 0 -0.13 -5.21 -0.9 -5.09 c -0.16 0 -2.09 1 -2.09 1 s 2.36 5 0.58 8.73 c 0 0 0.67 -6.23 -1.32 -8.37 L 306.2 695 s 2.76 5.22 0.89 9.48 c 0 0 0.48 -6.54 -1.49 -9.08 l -2.56 2 s 2.59 5.15 1 8.68 c 0 0 -0.21 -7.61 -1.57 -8.18 a 16 16 0 0 0 -2.59 2.79 s 1.78 3.74 0.68 5.71 c 0 0 -0.68 -5.07 -1.23 -5.09 c 0 0 -2.24 3.35 -2.47 5.66 a 12.2 12.2 0 0 1 1.92 -6 a 6.78 6.78 0 0 0 -3.42 1.78 s 0.35 -2.38 4 -2.58 c 0 0 1.84 -2.55 2.34 -2.7 c 0 0 -3.61 -0.31 -5.8 0.66 c 0 0 1.93 -2.24 6.46 -1.22 l 2.53 -2.07 s -4.75 -0.65 -6.76 0.07 c 0 0 2.32 -2 7.45 -0.54 l 2.75 -1.64 a 24.71 24.71 0 0 0 -6.46 -0.56 s 2.55 -1.38 7.27 0.11 l 2 -0.88 s -3 -0.59 -3.83 -0.68 s -0.92 -0.33 -0.92 -0.33 a 10.32 10.32 0 0 1 5.58 0.62 S 316.11 689.43 316 689.17 Z" stroke-linecap="round"/>
</g>
		<g transform="matrix(1 0 0 1 -300.38 260.18)" id="1084">
<ellipse style="stroke: none; stroke-width: 1; stroke-dasharray: none; stroke-linecap: butt; stroke-dashoffset: 0; stroke-linejoin: miter; stroke-miterlimit: 4; is-custom-font: none; font-file-url: none; fill: rgb(223,181,181); fill-rule: nonzero; opacity: 0.1;" cx="0" cy="0" rx="16.87" ry="2.85"/>
</g>
		<g transform="matrix(1 0 0 1 -437.1757 265.4561)" id="1084">
<path style="stroke: none; stroke-width: 1; stroke-dasharray: none; stroke-linecap: butt; stroke-dashoffset: 0; stroke-linejoin: miter; stroke-miterlimit: 4; is-custom-font: none; font-file-url: none; fill: rgb(223,181,181); fill-rule: nonzero; opacity: 1;" transform=" translate(-162.8243, -715.4562)" d="M 175.35 703.67 S 146.57 701.93 150 722.1 a 4.92 4.92 0 0 0 2.56 5.18 s 0 -1.5 2.95 -1 a 13.14 13.14 0 0 0 3.13 0.15 a 6.46 6.46 0 0 0 3.82 -1.58 h 0 s 8.09 -3.34 11.24 -16.56 c 0 0 2.32 -2.88 2.23 -3.62 L 171 706.75 s 1.65 3.5 0.35 6.41 c 0 0 -0.16 -6.28 -1.09 -6.13 c -0.19 0 -2.52 1.21 -2.52 1.21 s 2.85 6.1 0.7 10.54 c 0 0 0.81 -7.52 -1.6 -10.1 l -3.41 2 s 3.33 6.3 1.07 11.44 c 0 0 0.58 -7.89 -1.79 -11 l -3.1 2.42 s 3.13 6.21 1.22 10.48 c 0 0 -0.25 -9.19 -1.89 -9.88 c 0 0 -2.71 2.39 -3.13 3.37 c 0 0 2.15 4.51 0.82 6.89 c 0 0 -0.82 -6.12 -1.49 -6.15 c 0 0 -2.7 4.06 -3 6.84 a 14.75 14.75 0 0 1 2.33 -7.22 a 8.09 8.09 0 0 0 -4.14 2.14 s 0.42 -2.87 4.81 -3.12 c 0 0 2.23 -3.07 2.82 -3.26 c 0 0 -4.35 -0.37 -7 0.8 c 0 0 2.33 -2.7 7.8 -1.47 l 3.06 -2.5 s -5.74 -0.78 -8.17 0.09 c 0 0 2.8 -2.4 9 -0.65 l 3.33 -2 s -4.89 -1.06 -7.8 -0.68 c 0 0 3.07 -1.66 8.78 0.14 l 2.38 -1.07 s -3.58 -0.7 -4.63 -0.81 s -1.11 -0.4 -1.11 -0.4 a 12.36 12.36 0 0 1 6.73 0.74 S 175.44 704 175.35 703.67 Z" stroke-linecap="round"/>
</g>
		<g transform="matrix(1 0 0 1 -444.47 279.04)" id="1084">
<ellipse style="stroke: none; stroke-width: 1; stroke-dasharray: none; stroke-linecap: butt; stroke-dashoffset: 0; stroke-linejoin: miter; stroke-miterlimit: 4; is-custom-font: none; font-file-url: none; fill: rgb(223,181,181); fill-rule: nonzero; opacity: 0.1;" cx="0" cy="0" rx="20.37" ry="3.44"/>
</g>
		<g transform="matrix(1 0 0 1 142.88 404.28)" id="1084">
<ellipse style="stroke: none; stroke-width: 1; stroke-dasharray: none; stroke-linecap: butt; stroke-dashoffset: 0; stroke-linejoin: miter; stroke-miterlimit: 4; is-custom-font: none; font-file-url: none; fill: rgb(223,181,181); fill-rule: nonzero; opacity: 0.1;" cx="0" cy="0" rx="29.92" ry="5.06"/>
</g>
		<g transform="matrix(1 0 0 1 154.5438 387.6896)" id="1084">
<path style="stroke: none; stroke-width: 1; stroke-dasharray: none; stroke-linecap: butt; stroke-dashoffset: 0; stroke-linejoin: miter; stroke-miterlimit: 4; is-custom-font: none; font-file-url: none; fill: rgb(168,168,168); fill-rule: nonzero; opacity: 1;" transform=" translate(-754.5438, -837.6896)" d="M 722.79 830.78 s 17.07 -0.53 22.21 -4.19 s 26.25 -8 27.53 -2.16 s 25.65 29.21 6.38 29.37 s -44.77 -3 -49.91 -6.13 S 722.79 830.78 722.79 830.78 Z" stroke-linecap="round"/>
</g>
		<g transform="matrix(1 0 0 1 154.5318 392.2726)" id="1084">
<path style="stroke: none; stroke-width: 1; stroke-dasharray: none; stroke-linecap: butt; stroke-dashoffset: 0; stroke-linejoin: miter; stroke-miterlimit: 4; is-custom-font: none; font-file-url: none; fill: rgb(0,0,0); fill-rule: nonzero; opacity: 0.2;" transform=" translate(-754.5318, -842.2726)" d="M 779.25 851.75 c -19.27 0.16 -44.77 -3 -49.9 -6.12 c -3.91 -2.39 -5.47 -10.93 -6 -14.87 l -0.57 0 s 1.08 13.76 6.21 16.89 s 30.64 6.28 49.91 6.13 c 5.56 0 7.48 -2 7.38 -5 C 785.52 850.61 783.39 851.72 779.25 851.75 Z" stroke-linecap="round"/>
</g>
</g>
</g>
</svg>